<?xml version="1.0" encoding="utf-8"?>
<!-- Generator: Adobe Illustrator 24.0.0, SVG Export Plug-In . SVG Version: 6.00 Build 0)  -->
<svg version="1.1" id="Layer_1" xmlns="http://www.w3.org/2000/svg" xmlns:xlink="http://www.w3.org/1999/xlink" x="0px" y="0px"
	 viewBox="0 0 50 50" style="enable-background:new 0 0 50 50;" xml:space="preserve">
<style type="text/css">
	.st0{fill:#FFFFFF;}
</style>
<path id="g12_2_" transform="scale(0.1,0.1)" class="st0" d="M359.6,270.5c19.9-8,38.4-16.4,54.6-25c-0.2-20.2-3-34.5-8.7-46.1
	c-5.8,14-14.2,34.3-16.7,40.2c-0.9,2.1-2.2,3.5-3.8,3.5c-1.7,0-2.7-1-3.9-3.3c-1.8-3.5-13-26.7-21.4-44.3L359.6,270.5L359.6,270.5z
	 M111.2,230.2v-72.2c-14.5,19.5-23.8,46.6-25.9,72.2H111.2z M490.6,182.4c0,45.8-110.6,105.4-257.2,139.8
	c-45.7,10.7-97.8,19.2-139.3,19.2c-60.4,0-85.1-21.4-85.1-45.6c0-14.8,8.9-28.6,27.6-41.1c1-0.7,2-1.2,2.9-1.2
	c1.1,0,1.8,0.7,1.8,1.6c0,0.8-0.4,1.5-1.5,2.3C25,269,17.6,281.1,17.6,293.6c0,17.1,18.7,35.7,75.4,35.7c5.5,0,11.6-0.2,18.2-0.6
	v-70.3H85.4c0.9,12.5,3,23.3,7.3,38.6c0.5,1.7,0.8,3.1,0.8,4c0,2.4-1.1,3.8-4.7,5c-4.2,1.6-7.9,2.9-11.7,4.1c-1.5,0.5-2.8,0.8-4,0.8
	c-2.6,0-4.2-1.5-5.4-4.5c-8.1-19-11-43.5-11-63.1c0-56.2,30.1-111.6,72.8-143.8c2.1-1.6,4.1-2.2,5.5-2.2c2.9,0,4.5,2.1,4.5,4.5
	v224.4c6.7-0.7,13.7-1.6,20.8-2.6v-40.9c0-5.2,2-7,7.6-7h13.5c5.5,0,7.3,1.8,7.3,7v36.4c7.7-1.4,15.5-2.8,23.3-4.5v-38.5
	c0-7.2-1.9-10-7.4-13.3c-5.6-3.3-16.5-9.8-24.2-14.5c-13.7-8.3-20.1-15.7-20.1-33.2V96.7c0-8.7,1.8-14.3,9.8-19.4
	c15.4-9.8,42.7-19.1,56.1-19.1c8.2,0,11.8,3.9,11.8,10.4v134.1c0,5.2-1.7,7-7.3,7h-13.8c-5.5,0-7.3-1.8-7.3-7V96.9
	c0-4.1-0.9-5.6-4.2-5.6c-2.5,0-7.4,1.7-11.1,4c-4.1,2.5-5,5.2-5,10.2v103.4c0,7.4,1.2,9.6,7.2,13.3c7.2,4.4,17.8,10.7,24.2,14.5
	c14.4,8.4,20.1,16.8,20.1,33.2v38.4c9.7-2.3,19.3-4.9,28.9-7.5V87c-3.4-0.4-9.9-1.2-16.5-1.9c-5.3-0.6-6.1-2.8-6.1-6.5V64.3
	c0-4.2,2.2-6.5,6.8-6.5c17.3,0,48.5,6.3,61.5,11.4c5.2,2.1,6.3,4,6.3,7.8v16.2c0,3.4-1.8,5-4.4,5c-1.1,0-2.4-0.3-5-1.2
	c-5.9-1.9-10.9-3.4-14.3-4.4v199.7c11.1-3.5,22.1-7.1,32.7-10.9V80.8c0-2.9,1.6-5,4.4-5c2.9,0,4.5,2.3,6.7,7.2
	c8.3,19.1,27.9,64.5,43.7,100.8c5.7-15.7,12.6-35,14-39.1c1.1-3,2.6-4.6,4.9-4.6c1.8,0,3.2,0.9,5.4,3.6c18,24.6,28.9,52.3,32,85.6
	c25.2-16.6,40.4-33.1,40.4-47.4c0-14.1-13.6-26.3-46.2-27.9c-1.5-0.1-2.4-0.8-2.4-1.9c0-1,0.9-1.9,2.5-1.9
	C472.9,150.1,490.6,166.1,490.6,182.4L490.6,182.4z M211.9,338.9v58c0,4.1-1.7,5.7-4.9,5.7c-3.5,0-9.7-1.3-13.2-3.4
	c-4.1-2.4-5.2-4.9-5.2-10.3v-45.8c-9.6,1.7-19,3.1-28.4,4.4l0,51.1c0,10.6,3.2,16.4,13.3,22.2c13.2,7.5,40.9,14.2,54.7,14.2
	c8.4,0,12.5-4.7,12.5-11.8v-90.6C231.1,334.8,221.5,337,211.9,338.9L211.9,338.9z M111.2,351.9v18.8c0,6.7,1.4,9.3,5.3,12.5
	c4,3.3,8.8,7.3,14,11.5c1.8,1.4,3.6,2.1,5.1,2.1c2.3,0,3.9-1.6,3.9-4.8v-42.2C129.9,350.7,120.3,351.4,111.2,351.9L111.2,351.9z
	 M269.7,325.3v102.5c0,3.4,1.8,5.5,5.5,5.5c4,0,12.2-1.8,17.2-3.4c4.2-1.4,5.5-3.4,5.5-7.4V317.1
	C288.8,319.9,279.4,322.6,269.7,325.3L269.7,325.3z M359.6,296.3c-9.2,3.6-18.9,7.1-29,10.5v103.3c0,3.7,1.7,5.5,4.9,5.5
	c1.2,0,2.4-0.2,4-0.9c3.4-1.4,12.5-6.4,16-8.9c3.5-2.5,4.1-4.4,4.1-9.6V296.3L359.6,296.3z M442.3,256.1
	c-1.5,36.8-14.6,76.1-43,110.3c-1.4,1.6-2.4,2.2-4,2.2c-1.6,0-2.9-0.6-4.3-1.8c-2.6-2.1-8.9-7.1-10.9-8.7c-1.8-1.5-2.8-2.9-2.8-4.7
	c0-1.7,0.9-3.4,2-5c18.9-27.3,29.1-50.3,33-75.2C420.4,269.4,433.8,261.8,442.3,256.1"/>
</svg>
