<?xml version="1.0" encoding="utf-8"?>
<!-- Generator: Adobe Illustrator 24.0.0, SVG Export Plug-In . SVG Version: 6.00 Build 0)  -->
<svg version="1.1" id="Layer_1" xmlns="http://www.w3.org/2000/svg" xmlns:xlink="http://www.w3.org/1999/xlink" x="0px" y="0px"
	 viewBox="0 0 290 150" style="enable-background:new 0 0 290 150;" xml:space="preserve">
<style type="text/css">
	.st0{fill:#FFF200;}
	.st1{fill:#999999;}
	.st2{fill:#FFFFFF;}
</style>
<g>
	<path class="st0" d="M62.1,62c-24.4,33.1-25.8,44.2-26.7,48.3c-0.1,0.6-0.1,2.1-0.2,2.7c0,0.6-0.1,1.2-0.3,1.8
		c-0.2,0.6-0.4,1.1-0.8,1.5c-0.3,0.4-0.9,0.7-1.6,0.9c-0.8,0.3-1.6,0.2-2.4-0.1c-0.7-0.4-1.4-0.9-2-1.5c-0.6-0.6-1.1-1.4-1.5-2.2
		c-0.4-0.8-0.7-1.6-0.8-2.2c-0.6-2.2-0.9-4.5-0.4-6.7c1.6-7.8,18-32.3,25.5-41.5c-3.3,0.5-6.7,1.1-10.1,2.1
		c-3.4,0.9-6.6,2.1-9.7,3.6c-3.1,1.5-5.9,3.3-8.5,5.4c-2.6,2.1-4.7,4.6-6.4,7.5c-0.8,1.4-1.5,2.9-2,4.5c-0.5,1.7-0.8,3.3-0.8,4.9
		c0,1.6,0.3,3.2,1,4.6c0.6,1.4,1.8,2.6,3.4,3.5c0.7,0.4,1.2,0.9,1.5,1.7c0.3,0.7,0.3,1.4,0.2,2.2c-0.1,0.7-0.4,1.4-0.9,2.1
		c-0.5,0.7-1.1,1.1-1.8,1.4c-1.4,0.5-2.9,0.4-4.5-0.1c-1.6-0.5-3-1.2-4.1-2c-1.8-1.3-3.2-2.9-4.1-4.9c-0.9-2-1.4-4.1-1.5-6.2
		c-0.1-2.3,0.2-4.5,0.8-6.7s1.5-4.2,2.7-6.1c1.2-1.9,2.5-3.7,4.1-5.4c1.6-1.7,3.2-3.2,4.9-4.6C40.1,51,78,51.6,84.1,52.3
		c2.4,0.3,5.2,0.9,7.2,1.9c2,1,3.6,2.5,4.8,4.4c0.5,0.7,0.6,1.4,0.6,2.1c-0.1,0.7-0.3,1.3-0.7,1.8c-0.4,0.5-0.9,0.9-1.6,1.2
		C93.7,64,93,64.1,92.3,64C88,63.5,73.3,61,62.1,62z M287.5,125.4c0,1.4-0.2,2.8-0.6,4.2c-0.5,1.4-0.9,2.5-1.4,3.4
		c-1.8,2.9-4.3,4.9-7.4,6.2c-3.1,1.3-6.3,1.6-9.6,1c-2.3-0.5-4.5-1.3-6.4-2.6c-2-1.3-3.7-2.9-5.2-4.8c-1.6-2.1-2.7-4.3-3.3-6.7
		c-0.6-2.4-0.8-4.9-0.7-7.4c0.1-2.5,0.5-5,1.2-7.5c0.7-2.5,1.5-4.9,2.5-7.1c1-2.4,2.1-4.5,3.1-6.4c1.1-1.9,2-3.6,2.9-5.1
		c0.8-1.5,1.6-2.7,2.1-3.7c0.6-1,0.8-1.8,0.8-2.3c0-0.5-0.4-0.7-1.1-0.8c-0.7-0.1-1.3-0.2-1.8-0.3c-14,20.3-34.3,35.1-45.9,31.7
		c-2.5-0.7-4.4-2-5.8-3.6s-2.5-3.2-3.1-5.1c-0.5-1.4-0.7-2.9-0.8-4.4c-0.7,0.9-1.3,1.7-1.8,2.3c-1,1.4-2.2,2.8-3.4,4.4
		c-1.3,1.6-2.7,2.9-4.2,4c-1.5,1.1-3.2,1.9-4.9,2.4c-1.7,0.5-3.6,0.3-5.5-0.5c-1.6-0.7-2.9-1.6-3.8-2.7c-0.9-1.2-1.5-2.4-1.8-3.8
		c-0.3-1.4-0.4-2.9-0.1-4.4c0.2-1.6,0.6-3,1.1-4.4c0.7-1.9,1.6-3.7,2.7-5.5c1-1.7,2.1-3.4,3.3-5c1.1-1.6,2.3-3.2,3.5-4.7
		c1.2-1.5,2.3-3.2,3.3-4.9c0.6-1,0.8-1.6,0.6-1.9c-0.2-0.3-0.7-0.2-1.4,0.2c-0.8,0.4-1.7,1-3,1.9c-1.2,0.9-2.6,2-4.1,3.4
		c-1.7,1.5-3.4,3.1-4.8,4.9c-1.5,1.7-2.9,3.5-4.4,5.3c-1.2,1.5-2.4,2.9-3.5,4.4c-1.2,1.4-2.2,2.9-3.2,4.4c-1,1.5-1.9,3.1-2.6,4.7
		c-0.8,1.6-1.3,3.4-1.6,5.3c-0.2,1-0.6,1.8-1.2,2.5c-0.6,0.6-1.3,1-2.1,1.3c-0.8,0.2-1.6,0.3-2.4,0.1c-0.8-0.1-1.5-0.4-2.2-0.9
		c-1-0.7-1.6-1.6-1.9-2.9c-0.3-1.2-0.7-2.6-0.3-4.1c0.2-1.1,0.5-2.1,0.8-3.2c-4.5,5.7-10.6,10.9-17.7,11.2c-2.4,0.1-4.5-0.3-6.5-1.8
		c-1.6-1.1-2.7-2.5-3.3-4.2c-0.6-1.7-0.9-3.4-0.9-5.3c0-0.6,0-1.2,0.1-1.8c-1.9,2.3-4,4.4-6.2,6.3c-1.6,1.2-3.3,2.4-5.1,3.4
		c-1.8,1-3.7,1.9-5.7,2.5c-2,0.6-4,1-6,1.1c-2,0.1-4.1-0.2-6.1-1c-2.4-0.8-4.4-2-5.8-3.6s-2.5-3.2-3.1-5.1c-0.5-1.5-0.7-3-0.8-4.7
		c-2.1,2.8-4.4,5.2-7.1,7.3c-1.6,1.2-3.3,2.4-5.1,3.4c-1.8,1-3.7,1.9-5.7,2.5c-2,0.6-4,1-6,1.1c-2,0.1-4.1-0.2-6.1-1
		c-2.4-0.8-4.4-2-5.8-3.6c-1.4-1.5-2.5-3.2-3.1-5.1c-0.6-1.9-0.9-3.9-0.8-6.1c0.1-2.2,0.4-4.3,1-6.5c0.6-2.2,1.4-4.3,2.4-6.3
		c1-2,2-3.9,3.2-5.5c1.1-1.6,2.4-3.1,3.8-4.7c1.4-1.5,2.9-3,4.5-4.2c1.6-1.3,3.4-2.3,5.2-3.2c1.8-0.9,3.8-1.4,5.8-1.6
		c2.4-0.3,4.7,0.1,6.9,1.1c2.2,1,4,2.6,5.2,4.7c1.2,2,1.7,4.1,1.6,6.3c-0.1,2.1-0.6,4.2-1.5,6.2c-0.9,2-2.2,3.8-3.8,5.5
		c-1.6,1.7-3.2,3-5,4c-2.9,1.7-5.7,2.6-8.6,2.8c-2.9,0.2-5.7-0.1-8.6-1c-0.5,1.3-0.7,2.5-0.7,3.6c0,1.1,0.4,2,1.1,2.6
		c1.4,1,2.9,1.5,4.6,1.5c1.7,0,3.5-0.4,5.4-1.1c1.9-0.7,3.7-1.6,5.6-2.7c1.9-1.2,3.7-2.4,5.4-3.7c1.7-1.3,3.2-2.6,4.6-3.8
		c1.1-1.1,2.7-2.6,3.6-3.6c0.4-1,0.8-2,1.3-3c1-2,2-3.9,3.2-5.5c1.1-1.6,2.4-3.1,3.8-4.7c1.4-1.5,2.9-3,4.5-4.2
		c1.6-1.3,3.4-2.3,5.2-3.2c1.8-0.9,3.8-1.4,5.8-1.6c2.4-0.3,4.7,0.1,6.9,1.1c2.2,1,4,2.6,5.2,4.7c1.2,2,1.7,4.1,1.6,6.3
		c-0.1,2.1-0.6,4.2-1.5,6.2c-0.9,2-2.2,3.8-3.8,5.5c-1.6,1.7-3.2,3-5,4c-2.9,1.7-5.7,2.6-8.6,2.8c-2.9,0.2-5.7-0.1-8.6-1
		c-0.5,1.3-0.7,2.5-0.7,3.6c0,1.1,0.4,2,1.1,2.6c1.4,1,2.9,1.5,4.6,1.5c1.7,0,3.5-0.4,5.4-1.1c1.9-0.7,3.7-1.6,5.6-2.7
		c1.9-1.2,3.7-2.4,5.4-3.7c1.7-1.3,3.2-2.6,4.6-3.8c1.1-1.1,2.8-2.7,3.8-3.8c0.1-0.3,0.2-0.5,0.3-0.8c0.6-1.4,1.2-2.9,1.9-4.5
		c0.7-1.6,1.5-3.3,2.4-5.1c0.9-1.8,1.5-3.3,2.6-5.5c-0.8-0.1-1.5-0.3-2.2-0.5c-0.7-0.2-1.3-0.6-1.7-1c-0.7-0.7-0.8-1.6-0.4-2.6
		c0.4-1,1.1-1.9,2.1-2.7c1-0.8,2.2-1.5,3.7-2.1c1.4-0.5,2.9-0.7,4.3-0.6c0.8-1.1,2-2.8,2.9-3.9c0.9-1.1,1.9-2,3-2.9
		c0.8-0.7,1.9-1.2,3.1-1.6c1.2-0.4,2.4-0.6,3.5-0.5c1.1,0.1,2.1,0.5,3,1.1c0.9,0.7,1.5,1.7,1.7,3.1c0.2,1.4,0,2.6-0.6,3.8
		c-0.6,1.2-1.6,2.9-2.4,3.9c0.6,0.2,1.3,0.4,1.9,0.6c0.7,0.1,1.3,0.2,1.9,0.2c1,0,1.6,0.4,1.9,1.1c0.3,0.7,0.3,1.4,0,2.1
		c-0.6,1.1-1.5,2-2.5,2.7c-1,0.6-2.2,1.1-3.4,1.5c-1.2,0.3-2.5,0.5-3.8,0.6c-1.3,0.1-2.6,0.1-3.8,0c-6.6,11.3-13.5,27-10.3,28.4
		c7,3.1,17.8-10.1,21-15.1c8-19.3,20.4-35.7,25.8-39.1c2.5-1.6,6.4-1,6.8,0.5c1,4.1-8.6,12.1-19.2,35.8c0.1,0,1.8-2.4,2.7-3.5
		c0.9-1.2,1.8-2.3,2.8-3.4c1.1-1.4,2.5-2.9,4-4.6c1.6-1.7,3.2-3.2,5-4.5c1.8-1.3,3.7-2.1,5.6-2.6c2-0.5,4-0.1,6,0.9
		c1.2,0.6,2.1,1.4,2.8,2.4c0.7,1,1.1,2,1.4,3.2c0.3,1.2,0.3,2.3,0.2,3.6c-0.1,1.2-0.4,2.4-0.8,3.6c-1.2,3.6-2.9,6.9-4.9,9.9
		c-2.1,3.1-4.1,6.1-6,9.1c-1,1.5-1.5,2.6-1.6,3.3c-0.1,0.7,0,1.2,0.4,1.3c0.4,0.1,1,0,1.9-0.4c0.8-0.4,1.8-1.1,2.8-2
		c1.1-1,2.2-2,3.2-3.1c1-1.1,2-2.2,3-3.2c1.1-1.2,2.3-2.4,3.4-3.6c0.2-0.2,0.4-0.4,0.6-0.6c0.5-1.8,1.2-3.5,2-5.2c1-2,2-3.9,3.2-5.5
		c1.1-1.6,2.4-3.1,3.8-4.7c1.4-1.5,2.9-3,4.5-4.2c1.6-1.3,3.4-2.3,5.2-3.2c1.8-0.9,3.8-1.4,5.8-1.6c2.4-0.3,4.7,0.1,6.9,1.1
		c2.2,1,4,2.6,5.2,4.7c1.2,2,1.7,4.1,1.6,6.3c-0.1,2.1-0.6,4.2-1.5,6.2c-0.9,2-2.2,3.8-3.8,5.5c-1.6,1.7-3.2,3-5,4
		c-2.9,1.7-5.7,2.6-8.6,2.8c-2.9,0.2-5.7-0.1-8.6-1c-0.5,1.3-0.7,2.5-0.7,3.6c0,1.1,0.4,2,1.1,2.6c1.4,1,2.9,1.6,4.6,1.5
		c6.1-0.5,20.6-5.6,29.1-25.9c-0.8-1-1.3-2.4-1.3-4.2c0-1.2,0.3-2.3,1-3.5c0.6-1.1,1.5-2.1,2.5-2.9c1-0.8,2.1-1.4,3.3-1.7
		c1.2-0.4,2.4-0.4,3.6-0.2c1.5,0.3,2.6,1,3.4,1.9c0.8,1,1.2,2,1.4,3.2c1.4,0.5,2.8,1,4.1,1.6c1.3,0.6,2.5,1.3,3.5,2.2
		c1,0.9,1.8,2,2.4,3.2c0.6,1.2,0.8,2.7,0.7,4.4c-0.1,1.4-0.4,2.8-1,4.2c-0.5,1.4-1.2,2.7-1.9,4.1c-0.7,1.3-1.5,2.6-2.4,3.9
		c-0.8,1.3-1.6,2.6-2.4,3.8c-1.4,2.3-2.8,4.7-4.2,7.2c-1.4,2.5-2.6,5-3.5,7.5c-0.9,2.5-1.3,4.9-1.3,7.2c0,2.3,0.9,4.4,2.5,6.2
		c1.5,1.7,3.4,2.6,5.5,2.6c2.1,0.1,4-0.8,5.6-2.5c0.7-0.7,1.3-1.7,1.7-2.9c0.5-1.2,1-2.3,1.6-3.4c0.6-1.1,1.3-2,2.1-2.7
		c0.8-0.8,1.9-1.1,3.3-1c1.6,0.2,2.7,0.8,3.3,1.8C287.2,122.8,287.5,124,287.5,125.4z M222.4,93c1.8,0.2,3.5,0,5.1-0.6
		c2.2-0.8,4.1-2.2,5.7-4.1c0.4-0.5,0.9-1.1,1.4-2c0.6-0.9,0.9-1.8,1.1-2.6c0.3-1,0.2-1.5-0.3-1.7c-0.5-0.2-1.1-0.2-1.8,0
		c-1,0.3-1.9,0.8-2.8,1.5c-0.9,0.7-1.6,1.4-2.3,2c-1.2,1.1-2.3,2.3-3.3,3.6C224.2,90.3,223.3,91.6,222.4,93z M106.1,92.8
		c1.8,0.2,3.5,0,5.1-0.6c2.2-0.8,4.1-2.2,5.7-4.1c0.4-0.5,0.9-1.1,1.4-2c0.6-0.9,0.9-1.8,1.1-2.6c0.3-1,0.2-1.5-0.3-1.7
		c-0.5-0.2-1.1-0.2-1.8,0c-1,0.3-1.9,0.8-2.8,1.5c-0.9,0.7-1.6,1.4-2.3,2c-1.2,1.1-2.3,2.3-3.3,3.6C107.9,90.1,107,91.4,106.1,92.8z
		 M66.4,92.8c1.8,0.2,3.5,0,5.1-0.6c2.2-0.8,4.1-2.2,5.7-4.1c0.4-0.5,0.9-1.1,1.4-2c0.6-0.9,0.9-1.8,1.1-2.6c0.3-1,0.2-1.5-0.3-1.7
		c-0.5-0.2-1.1-0.2-1.8,0c-1,0.3-1.9,0.8-2.8,1.5c-0.9,0.7-1.6,1.4-2.3,2c-1.2,1.1-2.3,2.3-3.3,3.6C68.2,90.1,67.3,91.4,66.4,92.8z"
		/>
	<g>
		<path class="st1" d="M127.9,97c-2.5,7.4-2.6,11.1-2.5,12.3c1.5-1.4,2.9-2.9,4.2-4.6c0.1-1,1.6-8.1,3-12.3
			C132.4,92.5,128.8,96.2,127.9,97z"/>
		<path class="st1" d="M207.1,104.1c0-0.6,0-1.1,0-1.7c0.1-2.2,0.4-4.3,1-6.5c0.1-0.4,0.2-0.7,0.3-1.1c-0.2,0.2-0.4,0.4-0.6,0.6
			c-1.1,1.2-2.3,2.5-2.6,2.8c-1.4,3.8-2,6.9-2.3,11.2C203.8,108.4,206.4,105,207.1,104.1z"/>
		<path class="st1" d="M157.9,106.5c1.3-4.9,3-9.8,4.9-14.6c-1.2,1.9-3.5,4.9-6.2,7.7c-2.9,6.7-3.4,10.9-3.5,11.9
			C155.1,109.9,156.4,108.4,157.9,106.5z"/>
		<path class="st1" d="M253.3,81.7c-0.1,0.3-1.5,3.2-1.6,3.5c1.7-0.4,6.5-0.3,8.6-0.3C255.2,83.7,253.3,81.7,253.3,81.7z"/>
		<path class="st1" d="M139.8,76.4c0,0,5.8,1.6,9.8,1.9c0,0-9,0.1-11.2,1.1L139.8,76.4z"/>
		<path class="st1" d="M51.1,62.9c0,0,3.2-0.7,8.9-1c0,0-8.2,2.1-11.7,4.5L51.1,62.9z"/>
		<path class="st1" d="M88.7,96.5c-2.9,7.7-2.3,11.8-2.3,12c1.5-1.4,3-3.2,4.3-4.8c0.1-1,0.2-4.6,2.1-11.2c0,0,0,0,0,0
			C92.6,92.7,89,96.3,88.7,96.5z"/>
	</g>
	<path class="st2" d="M154.6,30.1c-0.6,3.8-2.3,7.1-5.1,9.9c-3.6,3.5-8,5.3-13.2,5.3c-5.2,0-9.6-1.8-13.2-5.3
		c-3.6-3.5-5.4-7.9-5.4-13s1.8-9.5,5.4-13c3.6-3.5,8-5.3,13.2-5.3c5.2,0,9.6,1.8,13.2,5.3c2.8,2.8,4.5,6.1,5.1,9.9h-11.5
		c-1.2-2.5-3.9-4.3-6.9-4.3c-4.2,0-7.7,3.4-7.7,7.7c0,4.2,3.4,7.7,7.7,7.7c3.2,0,5.9-1.9,7-4.6H154.6z M155.7,9.4v9.7h8.3v25.3h10
		V19.1h8.3V9.4H155.7z M115,26.9c0,5.2-1.8,9.5-5.4,13c-3.6,3.5-8,5.3-13.2,5.3c-5.2,0-9.6-1.8-13.2-5.3c-3.6-3.5-5.4-7.9-5.4-13
		s1.8-9.5,5.4-13c3.6-3.5,8-5.3,13.2-5.3c5.2,0,9.6,1.8,13.2,5.3C113.2,17.4,115,21.7,115,26.9z M104,27c0-4.2-3.4-7.7-7.7-7.7
		s-7.7,3.4-7.7,7.7c0,4.2,3.4,7.7,7.7,7.7S104,31.3,104,27z M220.5,26.9c0,5.2-1.8,9.5-5.4,13c-3.6,3.5-8,5.3-13.2,5.3
		s-9.6-1.8-13.2-5.3c-3.6-3.5-5.4-7.9-5.4-13s1.8-9.5,5.4-13c3.6-3.5,8-5.3,13.2-5.3s9.6,1.8,13.2,5.3
		C218.7,17.4,220.5,21.7,220.5,26.9z M209.7,26.9c0-4.2-3.4-7.7-7.7-7.7c-4.2,0-7.7,3.4-7.7,7.7c0,4.2,3.4,7.7,7.7,7.7
		C206.2,34.5,209.7,31.1,209.7,26.9z M75.6,26.9c0,5-1.6,9.1-4.9,12.5c-3.3,3.4-7.3,5-12.1,5H42.3v-35h16.3c4.8,0,8.9,1.7,12.1,5
		C74,17.7,75.6,21.9,75.6,26.9z M65.8,26.7c0-4.2-3.4-7.7-7.7-7.7c-4.2,0-7.7,3.4-7.7,7.7c0,4.2,3.4,7.7,7.7,7.7
		C62.3,34.4,65.8,31,65.8,26.7z M253.3,44.4c0,0-11.1-0.1-11.1-0.1c0,0.1-9-11-9-11v11h-10v-35h14c0.3,0,0.5,0,0.8,0
		c0.1,0,0.2,0,0.3,0c0.1,0,0.2,0,0.3,0v0c0,0,0.1,0,0.1,0c7,0,12.7,5.7,12.7,12.7c0,4.8-2.7,9-6.6,11.1
		C246.9,36.3,253.3,44.4,253.3,44.4z M236.9,26.4c2.6,0,4.7-2.1,4.7-4.7c0-2.6-2.1-4.7-4.7-4.7c-2.6,0-4.7,2.1-4.7,4.7
		C232.2,24.3,234.3,26.4,236.9,26.4z"/>
</g>
</svg>
