<?xml version="1.0" encoding="utf-8"?>
<!-- Generator: Adobe Illustrator 24.0.0, SVG Export Plug-In . SVG Version: 6.00 Build 0)  -->
<svg version="1.1" id="Layer_1" xmlns="http://www.w3.org/2000/svg" xmlns:xlink="http://www.w3.org/1999/xlink" x="0px" y="0px"
	 viewBox="0 0 50 50" style="enable-background:new 0 0 50 50;" xml:space="preserve">
<style type="text/css">
	.st0{fill:#FFFFFF;}
</style>
<path class="st0" d="M25,17.1c4.4,0,7.9,3.5,7.9,7.9s-3.5,7.9-7.9,7.9s-7.9-3.5-7.9-7.9S20.6,17.1,25,17.1z M34.6,0H15.4
	C6.9,0,0,6.9,0,15.4v19.2C0,43.1,6.9,50,15.4,50h19.2C43.1,50,50,43.1,50,34.6V15.4C50,6.9,43.1,0,34.6,0z M25,38.2
	c-7.3,0-13.2-5.9-13.2-13.2S17.7,11.8,25,11.8S38.2,17.7,38.2,25S32.3,38.2,25,38.2z M38.7,13.4c-1.8,0-3.3-1.5-3.3-3.3
	s1.5-3.4,3.3-3.4S42,8.2,42,10.1C42.1,11.9,40.6,13.4,38.7,13.4z"/>
</svg>
