<?xml version="1.0" encoding="utf-8"?>
<!-- Generator: Adobe Illustrator 24.0.0, SVG Export Plug-In . SVG Version: 6.00 Build 0)  -->
<svg version="1.1" id="Layer_1" xmlns="http://www.w3.org/2000/svg" xmlns:xlink="http://www.w3.org/1999/xlink" x="0px" y="0px"
	 viewBox="0 0 30 30" style="enable-background:new 0 0 30 30;" xml:space="preserve">
<style type="text/css">
	.st0{fill:none;}
</style>
<path class="st0" d="M18.8,25.1h-8c-0.2,0-0.4-0.2-0.4-0.4c0-0.2,0.2-0.4,0.4-0.4h7.6v-0.7c0-0.7,0.1-1.3,0.2-2c0.2-0.9,1-1.5,2-1.5
	h0.9c0.9,0,1.7-0.8,1.7-1.7V15c0-0.2,0.2-0.4,0.4-0.4h2.1l-1.4-4.2v-0.1C24.2,5.2,20.1,1,15,1c-5,0-9.1,4.2-9.1,9.2c0,3,1.9,6,4,8.7
	c0.9,1.2,1.3,3.4,1.3,3.5c0,0.2-0.1,0.5-0.4,0.5c-0.2,0-0.5-0.1-0.5-0.3c0,0-0.4-2.1-1.2-3.1C7,16.6,5,13.5,5,10.2
	c0-5.5,4.5-10,10-10s10,4.5,10,10l1.6,4.7c0,0.1,0,0.3-0.1,0.4c-0.1,0.1-0.2,0.2-0.4,0.2H24v2.8c0,1.4-1.2,2.6-2.6,2.6h-0.9
	c-0.5,0-1,0.4-1.1,0.9c-0.1,0.6-0.2,1.2-0.2,1.8v1.2C19.2,24.9,19,25.1,18.8,25.1z M16.6,19.7c-0.2,0-0.4-0.2-0.4-0.4
	c0-2.9,0-5.9,1.6-8.1h-5.6c1.6,2.2,1.6,5.2,1.6,8.1c0,0.2-0.2,0.4-0.4,0.4S13,19.5,13,19.3c0-3.2,0-6.2-2-8.2
	c-0.1-0.1-0.2-0.3-0.1-0.5c0.1-0.2,0.2-0.3,0.4-0.3h7.5c0.2,0,0.3,0.1,0.4,0.3s0,0.4-0.1,0.5c-2,2-2,5-2,8.2
	C17.1,19.5,16.9,19.7,16.6,19.7z M16.1,29.9h-2.7c-1.7,0-3.1-1.4-3.1-3.1v-0.4h0.9v0.4c0,1.2,1,2.2,2.2,2.2h2.7c1.2,0,2.2-1,2.2-2.2
	v-0.4h0.9v0.4C19.2,28.5,17.8,29.9,16.1,29.9z"/>
</svg>
