<svg width="52" height="40" viewBox="0 0 52 40" fill="none" xmlns="http://www.w3.org/2000/svg">
<path d="M37.1792 22.5557C39.2895 21.7073 41.2513 20.8165 42.9692 19.9046C42.948 17.7625 42.6511 16.246 42.0467 15.0159C41.4316 16.5005 40.5408 18.6532 40.2757 19.2789C40.1803 19.5016 40.0424 19.6501 39.8727 19.6501C39.6925 19.6501 39.5864 19.544 39.4592 19.3001C39.2683 18.9289 38.0806 16.4687 37.1898 14.6023L37.1792 22.5557ZM10.8378 18.2821V10.6257C9.30011 12.6935 8.31389 15.5673 8.0912 18.2821H10.8378ZM51.071 13.2131C51.071 18.07 39.3425 24.3902 23.7964 28.0382C18.9502 29.1729 13.4252 30.0742 9.02439 30.0742C2.6193 30.0742 0 27.8049 0 25.2386C0 23.6691 0.943796 22.2057 2.92683 20.8802C3.03287 20.8059 3.13892 20.7529 3.23436 20.7529C3.35101 20.7529 3.42524 20.8271 3.42524 20.9226C3.42524 21.0074 3.38282 21.0817 3.26617 21.1665C1.69671 22.3966 0.911983 23.6797 0.911983 25.0053C0.911983 26.8187 2.89502 28.7911 8.90774 28.7911C9.49099 28.7911 10.1379 28.7699 10.8378 28.7275V21.2725H8.1018C8.19724 22.5981 8.41994 23.7434 8.87593 25.3659C8.92895 25.5461 8.96076 25.6946 8.96076 25.79C8.96076 26.0445 8.84412 26.193 8.46235 26.3203C8.01697 26.4899 7.6246 26.6278 7.22163 26.755C7.06257 26.8081 6.92471 26.8399 6.79745 26.8399C6.52174 26.8399 6.35207 26.6808 6.22481 26.3627C5.36585 24.3478 5.05832 21.7497 5.05832 19.6713C5.05832 13.7116 8.25027 7.83669 12.7784 4.42206C13.0011 4.25239 13.2131 4.18876 13.3616 4.18876C13.6691 4.18876 13.8388 4.41145 13.8388 4.66596V28.4624C14.5493 28.3881 15.2916 28.2927 16.0445 28.1866V23.8494C16.0445 23.298 16.2566 23.1071 16.8505 23.1071H18.2821C18.8653 23.1071 19.0562 23.298 19.0562 23.8494V27.7094C19.8727 27.561 20.6999 27.4125 21.527 27.2322V23.1495C21.527 22.386 21.3256 22.0891 20.7423 21.7391C20.1485 21.3892 18.9926 20.6999 18.176 20.2015C16.7232 19.3213 16.0445 18.5366 16.0445 16.6808V4.12513C16.0445 3.20254 16.2354 2.6087 17.0838 2.06787C18.7169 1.02863 21.6119 0.042418 23.0329 0.042418C23.9024 0.042418 24.2842 0.455991 24.2842 1.14528V15.3659C24.2842 15.9173 24.1039 16.1082 23.5101 16.1082H22.0467C21.4634 16.1082 21.2725 15.9173 21.2725 15.3659V4.14634C21.2725 3.71156 21.1771 3.55249 20.8271 3.55249C20.562 3.55249 20.0424 3.73277 19.6501 3.97667C19.2153 4.24178 19.1198 4.5281 19.1198 5.05832V16.0233C19.1198 16.8081 19.2471 17.0414 19.8834 17.4337C20.6469 17.9003 21.7709 18.5684 22.4496 18.9714C23.9767 19.8621 24.5811 20.7529 24.5811 22.492V26.5642C25.6098 26.3203 26.6278 26.0445 27.6458 25.7688V3.0965C27.2853 3.05408 26.596 2.96925 25.8961 2.89502C25.334 2.83139 25.2492 2.59809 25.2492 2.20573V0.68929C25.2492 0.243903 25.4825 0 25.9703 0C27.8049 0 31.1135 0.66808 32.492 1.20891C33.0435 1.4316 33.1601 1.63309 33.1601 2.03606V3.75398C33.1601 4.11453 32.9692 4.2842 32.6935 4.2842C32.5769 4.2842 32.439 4.25239 32.1633 4.15695C31.5376 3.95546 31.0074 3.79639 30.6469 3.69035V24.8674C31.824 24.4963 32.9905 24.1145 34.1145 23.7116V2.43902C34.1145 2.1315 34.2842 1.9088 34.5811 1.9088C34.8887 1.9088 35.0583 2.1527 35.2916 2.67232C36.1718 4.69777 38.2503 9.5122 39.9258 13.3616C40.5302 11.6967 41.2619 9.65005 41.4104 9.21527C41.527 8.89714 41.6861 8.72747 41.93 8.72747C42.1209 8.72747 42.2694 8.8229 42.5027 9.10923C44.4115 11.7179 45.5673 14.6554 45.8961 18.1866C48.5684 16.4263 50.1803 14.6766 50.1803 13.1601C50.1803 11.6649 48.7381 10.3712 45.281 10.2015C45.122 10.1909 45.0265 10.1166 45.0265 10C45.0265 9.89396 45.122 9.79851 45.2916 9.79851C49.1941 9.78791 51.071 11.4846 51.071 13.2131ZM21.5164 29.8091V35.9597C21.5164 36.3945 21.3362 36.5642 20.9968 36.5642C20.6257 36.5642 19.9682 36.4263 19.597 36.2036C19.1622 35.9491 19.0456 35.684 19.0456 35.1113V30.2545C18.0276 30.4348 17.0308 30.5832 16.0339 30.7211V36.14C16.0339 37.2641 16.3733 37.8791 17.4443 38.4942C18.8441 39.2895 21.7815 40 23.245 40C24.1357 40 24.5705 39.5016 24.5705 38.7487V29.141C23.5525 29.3743 22.5345 29.6076 21.5164 29.8091ZM10.8378 31.1877V33.1813C10.8378 33.8918 10.9862 34.1676 11.3998 34.5069C11.824 34.8568 12.333 35.281 12.8844 35.7264C13.0753 35.8749 13.2662 35.9491 13.4252 35.9491C13.6691 35.9491 13.8388 35.7794 13.8388 35.4401V30.965C12.8208 31.0604 11.8028 31.1347 10.8378 31.1877ZM27.6458 28.3669V39.2365C27.6458 39.597 27.8367 39.8197 28.2291 39.8197C28.6532 39.8197 29.5228 39.6288 30.053 39.4592C30.4984 39.3107 30.6363 39.0986 30.6363 38.6744V27.4974C29.6713 27.7943 28.6744 28.0806 27.6458 28.3669ZM37.1792 25.2916C36.2036 25.6734 35.175 26.0445 34.1039 26.4051V37.3595C34.1039 37.7519 34.2842 37.9427 34.6235 37.9427C34.7508 37.9427 34.878 37.9215 35.0477 37.8473C35.4083 37.6988 36.3733 37.1686 36.7444 36.9035C37.1156 36.6384 37.1792 36.4369 37.1792 35.8855V25.2916ZM45.9491 21.0286C45.79 24.9311 44.4008 29.0986 41.3892 32.7253C41.2407 32.895 41.1347 32.9586 40.965 32.9586C40.7953 32.9586 40.6575 32.895 40.509 32.7678C40.2333 32.5451 39.5652 32.0148 39.3531 31.8452C39.1623 31.6861 39.0562 31.5376 39.0562 31.3468C39.0562 31.1665 39.1516 30.9862 39.2683 30.8165C41.2725 27.9215 42.3542 25.4825 42.7678 22.842C43.6267 22.439 45.0477 21.6331 45.9491 21.0286Z" fill="white"/>
</svg>
