<?xml version="1.0" encoding="utf-8"?>
<!-- Generator: Adobe Illustrator 24.0.0, SVG Export Plug-In . SVG Version: 6.00 Build 0)  -->
<svg version="1.1" id="Layer_1" xmlns="http://www.w3.org/2000/svg" xmlns:xlink="http://www.w3.org/1999/xlink" x="0px" y="0px"
	 viewBox="0 0 30 30" style="enable-background:new 0 0 30 30;" xml:space="preserve">
<style type="text/css">
	.st0{fill:none;}
</style>
<path class="st0" d="M7.8,9.7c0.6,0.4,0.9,1,0.9,2c0,0.8-0.2,1.4-0.7,1.9c-0.4,0.4-1.1,0.6-1.9,0.6H3.1V4.3h3.2
	c0.9,0,1.7,0.2,2.2,0.7s0.8,1.2,0.8,2.1C9.2,8.4,8.7,9.2,7.8,9.7L7.8,9.7z M8,7.2C8,6,7.4,5.4,6.2,5.4H4.3V9h1.9C7.4,9,8,8.4,8,7.2z
	 M6.1,13c1,0,1.4-0.5,1.4-1.5S7,10.1,6.1,10.1H4.3V13L6.1,13L6.1,13z M13.6,4.3c1,0,1.7,0.3,2.2,0.8c0.5,0.5,0.8,1.3,0.8,2.3
	c0,1-0.3,1.7-0.8,2.2c-0.5,0.5-1.2,0.8-2.2,0.8h-1.8v3.1h-1.2V4.3H13.6L13.6,4.3z M13.5,9.2c0.6,0,1.1-0.2,1.4-0.5s0.4-0.8,0.4-1.4
	s-0.1-1.1-0.4-1.4s-0.8-0.5-1.4-0.5h-1.7v3.8L13.5,9.2L13.5,9.2z M21.5,11.5h-3.2l-0.8,2.6h-1.2L19.1,5h1.6l2.8,9.1h-1.2L21.5,11.5z
	 M21.2,10.4l-1.3-4.1l-1.2,4.1H21.2z M4.3,18.1v3.5h3.8v1.1H4.3v3.4H3.1V17h5.4v1.1H4.3z M12.9,18.3c0.3,0,0.5,0,0.6,0v1.1H13
	c-0.6,0-1,0.2-1.4,0.6s-0.5,0.9-0.5,1.5v3.8H9.9v-7.8h1.2v1.7C11.5,18.6,12.1,18.3,12.9,18.3L12.9,18.3z M15.7,22.1v1
	c0,0.6,0.2,1.1,0.5,1.5c0.3,0.3,0.8,0.5,1.3,0.5c0.6,0,1-0.1,1.3-0.4s0.4-0.7,0.5-1.4h1.2c-0.2,1.9-1.1,2.9-3,2.9
	c-0.9,0-1.6-0.3-2.2-0.8S14.6,24,14.6,23v-2.4c0-0.9,0.3-1.7,0.8-2.2s1.3-0.8,2.2-0.8c0.9,0,1.6,0.3,2.2,0.8s0.8,1.3,0.8,2.2v1.5
	H15.7z M17.5,18.6c-0.6,0-1,0.2-1.3,0.5c-0.3,0.3-0.5,0.8-0.5,1.5v0.5h3.6v-0.6c0-0.6-0.2-1.1-0.5-1.4S18.1,18.6,17.5,18.6
	L17.5,18.6z M22.9,21.9v0.9c0,0.6,0.2,1.1,0.5,1.5s0.8,0.5,1.3,0.5c0.6,0,1-0.1,1.3-0.4s0.4-0.7,0.5-1.4h1.2c-0.2,1.9-1.1,2.9-3,2.9
	c-0.9,0-1.6-0.3-2.2-0.8s-0.8-1.3-0.8-2.2v-2.2c0-0.9,0.3-1.7,0.8-2.2s1.3-0.8,2.2-0.8c0.9,0,1.6,0.3,2.2,0.8s0.8,1.3,0.8,2.2v1.3
	H22.9z M24.7,18.6c-0.6,0-1,0.2-1.3,0.5s-0.5,0.8-0.5,1.5V21h3.6v-0.4c0-0.6-0.2-1.1-0.5-1.4S25.2,18.6,24.7,18.6L24.7,18.6z"/>
</svg>
