<svg width="57" height="40" viewBox="0 0 57 40" fill="none" xmlns="http://www.w3.org/2000/svg">
<path fill-rule="evenodd" clip-rule="evenodd" d="M21.902 33.8905V39.7695C21.2104 39.8847 20.634 40 19.9424 40C8.87608 40 0 31.0086 0 19.9424C0 8.87608 8.87608 0 19.9424 0C20.634 0 21.3256 -6.6132e-07 21.902 0.115273V5.99424C21.2104 5.87896 20.634 5.87896 19.9424 5.87896C12.219 5.87896 5.87896 12.219 5.87896 19.9424C5.87896 27.6657 12.219 34.0058 19.9424 34.0058C20.634 34.121 21.2104 34.0058 21.902 33.8905ZM40.4611 16.9452C41.8444 10.6052 47.4928 5.87896 54.1787 5.87896C54.8703 5.87896 55.562 5.87896 56.1383 5.99424V0.115273C55.4467 -6.6132e-07 54.8703 0 54.1787 0C43.2277 0 34.2363 8.99135 34.2363 19.9424C34.2363 30.8934 43.2277 40 54.2939 40C54.9856 40 55.6772 40 56.2536 39.8847V34.0058C55.562 34.121 54.9856 34.121 54.2939 34.121C47.6081 34.121 41.9597 29.3948 40.5764 23.0548H52.1037V16.9452H40.4611Z" fill="white"/>
</svg>
