<?xml version="1.0" encoding="utf-8"?>
<!-- Generator: Adobe Illustrator 24.0.0, SVG Export Plug-In . SVG Version: 6.00 Build 0)  -->
<svg version="1.1" id="Layer_1" xmlns="http://www.w3.org/2000/svg" xmlns:xlink="http://www.w3.org/1999/xlink" x="0px" y="0px"
	 viewBox="0 0 50 50" style="enable-background:new 0 0 50 50;" xml:space="preserve">
<style type="text/css">
	.st0{fill-rule:evenodd;clip-rule:evenodd;fill:#FFFFFF;}
</style>
<path class="st0" d="M19.6,37.7v5.1l0,0C19,42.9,18.5,43,17.9,43C8.3,43,0.6,35.2,0.6,25.6S8.3,8.3,17.9,8.3c0.6,0,1.2,0,1.7,0.1
	l0,0v5.1l0,0c-0.6-0.1-1.1-0.1-1.7-0.1c-6.7,0-12.2,5.5-12.2,12.2c0,6.7,5.5,12.2,12.2,12.2C18.5,37.9,19,37.8,19.6,37.7L19.6,37.7
	L19.6,37.7L19.6,37.7z M35.7,23L35.7,23L35.7,23c1.2-5.5,6.1-9.6,11.9-9.6c0.6,0,1.2,0,1.7,0.1l0,0V8.4l0,0
	c-0.6-0.1-1.1-0.1-1.7-0.1c-9.5,0-17.3,7.8-17.3,17.3S38.1,43,47.7,43c0.6,0,1.2,0,1.7-0.1l0,0v-5.1l0,0c-0.6,0.1-1.1,0.1-1.7,0.1
	c-5.8,0-10.7-4.1-11.9-9.6l0,0h10V23H35.7L35.7,23z"/>
</svg>
