<svg width="250" height="116" viewBox="0 0 250 116" fill="none" xmlns="http://www.w3.org/2000/svg">
<path d="M52.2245 46.8554C30.8149 75.8988 29.5864 85.6384 28.7967 89.2359C28.709 89.7624 28.709 91.0785 28.6213 91.605C28.6213 92.1315 28.5335 92.6579 28.358 93.1844C28.1825 93.7109 28.007 94.1496 27.6561 94.5006C27.3928 94.8515 26.8664 95.1148 26.2522 95.2902C25.5502 95.5535 24.8483 95.4657 24.1463 95.2025C23.5321 94.8515 22.9179 94.4128 22.3914 93.8863C21.8649 93.3599 21.4262 92.6579 21.0753 91.956C20.7243 91.254 20.461 90.5521 20.3733 90.0256C19.8468 88.0952 19.5836 86.0771 20.0223 84.1467C21.4262 77.3027 35.8163 55.8053 42.3971 47.7329C39.5015 48.1716 36.5182 48.698 33.5349 49.5755C30.5516 50.3652 27.7438 51.4181 25.0237 52.7343C22.3037 54.0504 19.8468 55.6298 17.5655 57.4725C15.2841 59.3151 13.4415 61.5087 11.9498 64.0533C11.2479 65.2817 10.6337 66.5979 10.195 68.0018C9.75624 69.4934 9.49301 70.8973 9.49301 72.3013C9.49301 73.7052 9.75624 75.1091 10.3704 76.3375C10.8969 77.5659 11.9498 78.6188 13.3538 79.4085C13.968 79.7595 14.4067 80.1982 14.6699 80.9002C14.9332 81.5144 14.9332 82.1286 14.8454 82.8306C14.7577 83.4448 14.4944 84.059 14.0557 84.6732C13.617 85.2874 13.0905 85.6384 12.4763 85.9016C11.2479 86.3403 9.93173 86.2526 8.52782 85.8139C7.12391 85.3751 5.89549 84.7609 4.93031 84.059C3.35091 82.9183 2.12249 81.5144 1.33279 79.7595C0.543093 78.0046 0.104372 76.162 0.0166276 74.3194C-0.0711167 72.3013 0.192116 70.3709 0.718582 68.4405C1.24505 66.5101 2.03475 64.7552 3.08768 63.0881C4.14061 61.421 5.28128 59.8416 6.68519 58.3499C8.0891 56.8583 9.49301 55.5421 10.9847 54.3137C32.9207 37.2036 66.1758 37.73 71.5282 38.3442C73.6341 38.6075 76.0909 39.1339 77.8458 40.0114C79.6007 40.8888 81.0046 42.205 82.0575 43.8721C82.4962 44.4863 82.584 45.1005 82.584 45.7147C82.4962 46.329 82.3207 46.8554 81.9698 47.2941C81.6188 47.7329 81.1801 48.0838 80.5659 48.3471C79.9516 48.6103 79.3374 48.6981 78.7232 48.6103C74.9502 48.1716 62.0518 45.978 52.2245 46.8554ZM250 102.485C250 103.714 249.825 104.942 249.474 106.171C249.035 107.399 248.684 108.364 248.245 109.154C246.666 111.698 244.472 113.453 241.752 114.594C239.032 115.735 236.224 115.998 233.329 115.471C231.31 115.033 229.38 114.331 227.713 113.19C225.958 112.049 224.466 110.645 223.15 108.978C221.746 107.136 220.781 105.205 220.255 103.099C219.728 100.994 219.553 98.8 219.64 96.6064C219.728 94.4128 220.079 92.2192 220.693 90.0256C221.308 87.832 222.01 85.7261 222.887 83.7957C223.764 81.6899 224.73 79.8473 225.607 78.1801C226.572 76.513 227.362 75.0213 228.152 73.7052C228.854 72.389 229.556 71.3361 229.994 70.4586C230.521 69.5812 230.696 68.8792 230.696 68.4405C230.696 68.0018 230.345 67.8263 229.731 67.7386C229.117 67.6508 228.59 67.5631 228.152 67.4753C215.867 85.2874 198.055 98.2735 187.877 95.2902C185.683 94.676 184.016 93.5354 182.788 92.1315C181.559 90.7275 180.594 89.3236 180.068 87.6565C179.629 86.4281 179.454 85.1119 179.366 83.7957C178.752 84.5854 178.225 85.2874 177.786 85.8139C176.909 87.0423 175.856 88.2707 174.803 89.6746C173.663 91.0785 172.434 92.2192 171.118 93.1844C169.802 94.1496 168.31 94.8515 166.818 95.2902C165.327 95.729 163.66 95.5535 161.993 94.8515C160.589 94.2373 159.448 93.4476 158.658 92.4824C157.869 91.4295 157.342 90.3766 157.079 89.1481C156.816 87.9197 156.728 86.6036 156.991 85.2874C157.167 83.8835 157.518 82.6551 157.956 81.4267C158.57 79.7595 159.36 78.1801 160.325 76.6007C161.203 75.1091 162.168 73.6174 163.221 72.2135C164.186 70.8096 165.239 69.4057 166.292 68.0895C167.345 66.7734 168.31 65.2817 169.188 63.7901C169.714 62.9126 169.889 62.3862 169.714 62.1229C169.539 61.8597 169.1 61.9474 168.486 62.2984C167.784 62.6494 166.994 63.1759 165.853 63.9656C164.8 64.7552 163.572 65.7204 162.256 66.9489C160.764 68.265 159.272 69.6689 158.044 71.2483C156.728 72.74 155.499 74.3194 154.183 75.8988C153.13 77.2149 152.077 78.4434 151.112 79.7595C150.059 80.9879 149.182 82.3041 148.304 83.6203C147.427 84.9364 146.637 86.3403 146.023 87.7442C145.321 89.1481 144.882 90.7275 144.619 92.3947C144.444 93.2721 144.093 93.9741 143.566 94.5883C143.04 95.1148 142.426 95.4657 141.724 95.729C141.022 95.9045 140.32 95.9922 139.618 95.8167C138.916 95.729 138.302 95.4657 137.687 95.027C136.81 94.4128 136.283 93.6231 136.02 92.4824C135.757 91.4295 135.406 90.2011 135.757 88.8849C135.932 87.9197 136.196 87.0423 136.459 86.0771C132.51 91.0785 127.158 95.6412 120.928 95.9045C118.822 95.9922 116.98 95.6412 115.225 94.3251C113.821 93.3599 112.856 92.1315 112.329 90.6398C111.803 89.1482 111.54 87.6565 111.54 85.9894C111.54 85.4629 111.54 84.9364 111.627 84.41C109.96 86.4281 108.118 88.2707 106.187 89.9378C104.783 90.9908 103.292 92.0437 101.712 92.9212C100.133 93.7986 98.4657 94.5883 96.7108 95.1148C94.9559 95.6412 93.201 95.9922 91.4461 96.0799C89.6913 96.1677 87.8486 95.9045 86.0937 95.2025C83.9879 94.5005 82.233 93.4476 81.0046 92.0437C79.7762 90.6398 78.811 89.2359 78.2845 87.5688C77.8458 86.2526 77.6703 84.9364 77.5826 83.4448C75.7399 85.9016 73.7218 88.0075 71.3527 89.8501C69.9488 90.903 68.4572 91.956 66.8778 92.8334C65.2984 93.7109 63.6312 94.5005 61.8763 95.027C60.1214 95.5535 58.3666 95.9045 56.6117 95.9922C54.8568 96.0799 53.0142 95.8167 51.2593 95.1148C49.1534 94.4128 47.3985 93.3599 46.1701 91.956C44.9417 90.6398 43.9765 89.1482 43.45 87.481C42.9236 85.8139 42.6603 84.059 42.7481 82.1286C42.8358 80.1982 43.0991 78.3556 43.6255 76.4252C44.152 74.4949 44.8539 72.6522 45.7314 70.8973C46.6088 69.1425 47.4863 67.4753 48.5392 66.0714C49.5044 64.6675 50.6451 63.3513 51.8735 61.9474C53.1019 60.6313 54.4181 59.3151 55.822 58.2622C57.2259 57.1215 58.8053 56.2441 60.3847 55.4544C61.9641 54.6647 63.719 54.2259 65.4738 54.0504C67.5797 53.7872 69.5978 54.1382 71.5282 55.0156C73.4586 55.8931 75.038 57.297 76.0909 59.1396C77.1438 60.8945 77.5826 62.7371 77.4948 64.6675C77.4071 66.5101 76.9683 68.3528 76.1786 70.1076C75.3889 71.8625 74.2483 73.4419 72.8444 74.9336C71.4405 76.4252 70.0365 77.5659 68.4571 78.4434C65.9126 79.935 63.4557 80.7247 60.9111 80.9002C58.3666 81.0757 55.9097 80.8124 53.3651 80.0228C52.9264 81.1634 52.7509 82.2164 52.7509 83.1815C52.7509 84.1467 53.1019 84.9364 53.7161 85.4629C54.9445 86.3403 56.2607 86.7791 57.7523 86.7791C59.244 86.7791 60.8234 86.4281 62.4905 85.8139C64.1577 85.1997 65.7371 84.41 67.4042 83.4448C69.0714 82.3918 70.6508 81.3389 72.1424 80.1982C73.6341 79.0576 74.9502 77.9169 76.1786 76.864C77.1438 75.8988 78.5477 74.5826 79.3374 73.7052C79.6884 72.8277 80.0394 71.9503 80.4781 71.0728C81.3556 69.3179 82.233 67.6508 83.2859 66.2469C84.2511 64.843 85.3918 63.5268 86.6202 62.1229C87.8486 60.8068 89.1648 59.4906 90.5687 58.4377C91.9726 57.297 93.552 56.4195 95.1314 55.6298C96.7108 54.8401 98.4657 54.4014 100.221 54.2259C102.326 53.9627 104.345 54.3137 106.275 55.1911C108.205 56.0686 109.785 57.4725 110.838 59.3151C111.891 61.07 112.329 62.9126 112.242 64.843C112.154 66.6856 111.715 68.5282 110.925 70.2831C110.136 72.038 108.995 73.6174 107.591 75.1091C106.187 76.6007 104.783 77.7414 103.204 78.6188C100.659 80.1105 98.2024 80.9002 95.6579 81.0757C93.1133 81.2512 90.6564 80.9879 88.1119 80.1982C87.6731 81.3389 87.4977 82.3918 87.4977 83.357C87.4977 84.3222 87.8486 85.1119 88.4628 85.6384C89.6913 86.5158 91.0074 86.9545 92.4991 86.9545C93.9907 86.9545 95.5701 86.6036 97.2373 85.9894C98.9044 85.3751 100.484 84.5854 102.151 83.6203C103.818 82.5673 105.397 81.5144 106.889 80.3737C108.381 79.233 109.697 78.0924 110.925 77.0394C111.891 76.0743 113.382 74.6703 114.26 73.7052C114.347 73.4419 114.435 73.2664 114.523 73.0032C115.049 71.7748 115.576 70.4586 116.19 69.0547C116.804 67.6508 117.506 66.1592 118.296 64.5798C119.086 63.0004 119.612 61.6842 120.577 59.7538C119.875 59.6661 119.261 59.4906 118.647 59.3151C118.033 59.1396 117.506 58.7886 117.155 58.4377C116.541 57.8235 116.453 57.0338 116.804 56.1563C117.155 55.2789 117.769 54.4892 118.647 53.7872C119.524 53.0853 120.577 52.4711 121.893 51.9446C123.122 51.5059 124.438 51.3304 125.666 51.4181C126.368 50.4529 127.421 48.9613 128.211 47.9961C129.001 47.0309 129.878 46.2412 130.843 45.4515C131.545 44.8373 132.51 44.3986 133.563 44.0476C134.616 43.6966 135.669 43.5211 136.634 43.6089C137.6 43.6966 138.477 44.0476 139.267 44.5741C140.056 45.1883 140.583 46.0657 140.758 47.2941C140.934 48.5226 140.758 49.5755 140.232 50.6284C139.705 51.6814 138.828 53.173 138.126 54.0504C138.653 54.2259 139.267 54.4014 139.793 54.5769C140.407 54.6647 140.934 54.7524 141.46 54.7524C142.338 54.7524 142.864 55.1034 143.128 55.7176C143.391 56.3318 143.391 56.946 143.128 57.5602C142.601 58.5254 141.811 59.3151 140.934 59.9293C140.056 60.4558 139.004 60.8945 137.951 61.2455C136.898 61.5087 135.757 61.6842 134.616 61.7719C133.476 61.8597 132.335 61.8597 131.282 61.7719C125.491 71.687 119.437 85.4629 122.244 86.6913C128.386 89.4114 137.863 77.8291 140.671 73.4419C147.69 56.5073 158.57 42.1172 163.309 39.1339C165.502 37.73 168.924 38.2565 169.275 39.5726C170.153 43.1702 161.729 50.1897 152.428 70.9851C152.516 70.9851 154.008 68.8792 154.797 67.914C155.587 66.8611 156.377 65.8959 157.254 64.9307C158.22 63.7023 159.448 62.3862 160.764 60.8945C162.168 59.4028 163.572 58.0867 165.151 56.946C166.731 55.8053 168.398 55.1034 170.065 54.6647C171.82 54.2259 173.575 54.5769 175.33 55.4544C176.383 55.9808 177.172 56.6828 177.786 57.5602C178.401 58.4377 178.752 59.3151 179.015 60.368C179.278 61.421 179.278 62.3862 179.19 63.5268C179.103 64.5798 178.839 65.6327 178.488 66.6856C177.436 69.8444 175.944 72.74 174.189 75.3723C172.346 78.0924 170.591 80.7247 168.924 83.357C168.047 84.6732 167.608 85.6384 167.52 86.2526C167.433 86.8668 167.52 87.3055 167.871 87.3933C168.222 87.481 168.749 87.3933 169.539 87.0423C170.24 86.6913 171.118 86.0771 171.995 85.2874C172.961 84.41 173.926 83.5325 174.803 82.5673C175.681 81.6021 176.558 80.637 177.436 79.7595C178.401 78.7066 179.454 77.6537 180.419 76.6007C180.594 76.4252 180.77 76.2497 180.945 76.0743C181.384 74.4949 181.998 73.0032 182.7 71.5116C183.578 69.7567 184.455 68.0895 185.508 66.6856C186.473 65.2817 187.614 63.9656 188.842 62.5616C190.071 61.2455 191.387 59.9293 192.791 58.8764C194.195 57.7357 195.774 56.8583 197.353 56.0686C198.933 55.2789 200.688 54.8401 202.443 54.6647C204.548 54.4014 206.567 54.7524 208.497 55.6298C210.427 56.5073 212.007 57.9112 213.06 59.7538C214.113 61.5087 214.551 63.3513 214.464 65.2817C214.376 67.1243 213.937 68.967 213.147 70.7219C212.358 72.4767 211.217 74.0561 209.813 75.5478C208.409 77.0394 207.005 78.1801 205.426 79.0576C202.881 80.5492 200.424 81.3389 197.88 81.5144C195.335 81.6899 192.878 81.4267 190.334 80.637C189.895 81.7776 189.72 82.8306 189.72 83.7957C189.72 84.7609 190.071 85.5506 190.685 86.0771C191.913 86.9545 193.229 87.481 194.721 87.3933C200.074 86.9545 212.796 82.4796 220.255 64.6675C219.553 63.7901 219.114 62.5616 219.114 60.9822C219.114 59.9293 219.377 58.9641 219.991 57.9112C220.518 56.946 221.308 56.0686 222.185 55.3666C223.063 54.6647 224.028 54.1382 225.081 53.875C226.134 53.524 227.187 53.524 228.239 53.6995C229.556 53.9627 230.521 54.5769 231.223 55.3666C231.925 56.2441 232.276 57.1215 232.451 58.1744C233.68 58.6132 234.908 59.0519 236.049 59.5783C237.189 60.1048 238.242 60.719 239.12 61.5087C239.997 62.2984 240.699 63.2636 241.226 64.3165C241.752 65.3695 241.928 66.6856 241.84 68.1773C241.752 69.4057 241.489 70.6341 240.962 71.8625C240.524 73.091 239.909 74.2316 239.295 75.46C238.681 76.6007 237.979 77.7414 237.189 78.8821C236.487 80.0227 235.785 81.1634 235.083 82.2164C233.855 84.2345 232.627 86.3403 231.398 88.5339C230.17 90.7275 229.117 92.9212 228.327 95.1148C227.537 97.3084 227.186 99.4142 227.186 101.432C227.186 103.45 227.976 105.293 229.38 106.872C230.696 108.364 232.363 109.154 234.206 109.154C236.049 109.242 237.716 108.452 239.12 106.96C239.734 106.346 240.26 105.469 240.611 104.416C241.05 103.363 241.489 102.398 242.015 101.432C242.542 100.467 243.156 99.6775 243.858 99.0633C244.56 98.3613 245.525 98.0981 246.753 98.1858C248.157 98.3613 249.123 98.8878 249.649 99.7652C249.737 100.204 250 101.257 250 102.485ZM192.878 74.0561C194.458 74.2316 195.95 74.0561 197.353 73.5297C199.284 72.8277 200.951 71.5993 202.355 69.9322C202.706 69.4934 203.145 68.967 203.583 68.1773C204.11 67.3876 204.373 66.5979 204.548 65.8959C204.812 65.0185 204.724 64.5798 204.285 64.4043C203.847 64.2288 203.32 64.2288 202.706 64.4043C201.828 64.6675 201.039 65.1062 200.249 65.7204C199.459 66.3346 198.845 66.9489 198.231 67.4753C197.178 68.4405 196.213 69.4934 195.335 70.6341C194.458 71.687 193.668 72.8277 192.878 74.0561ZM90.8319 73.8807C92.4113 74.0561 93.903 73.8806 95.3069 73.3542C97.2373 72.6522 98.9044 71.4238 100.308 69.7567C100.659 69.3179 101.098 68.7915 101.537 68.0018C102.063 67.2121 102.326 66.4224 102.502 65.7204C102.765 64.843 102.677 64.4043 102.239 64.2288C101.8 64.0533 101.273 64.0533 100.659 64.2288C99.7819 64.492 98.9921 64.9307 98.2025 65.545C97.4128 66.1592 96.7985 66.7734 96.1843 67.2998C95.1314 68.265 94.1662 69.3179 93.2888 70.4586C92.4113 71.5116 91.6216 72.6522 90.8319 73.8807ZM55.9975 73.8807C57.5769 74.0561 59.0685 73.8806 60.4724 73.3542C62.4028 72.6522 64.0699 71.4238 65.4738 69.7567C65.8248 69.3179 66.2635 68.7915 66.7023 68.0018C67.2287 67.2121 67.492 66.4224 67.6674 65.7204C67.9307 64.843 67.8429 64.4043 67.4042 64.2288C66.9655 64.0533 66.439 64.0533 65.8248 64.2288C64.9474 64.492 64.1577 64.9307 63.368 65.545C62.5783 66.1592 61.9641 66.7734 61.3499 67.2998C60.2969 68.265 59.3317 69.3179 58.4543 70.4586C57.5769 71.5116 56.7872 72.6522 55.9975 73.8807Z" fill="#FFF200"/>
<path d="M109.96 77.5659C107.767 84.059 107.679 87.3055 107.767 88.3584C109.083 87.13 110.311 85.8139 111.452 84.3222C111.54 83.4448 112.856 77.2149 114.084 73.5297C113.909 73.6174 110.75 76.8639 109.96 77.5659Z" fill="#999999"/>
<path d="M179.454 83.7957C179.454 83.2693 179.454 82.8306 179.454 82.3041C179.541 80.3737 179.805 78.5311 180.331 76.6007C180.419 76.2497 180.507 75.9865 180.594 75.6355C180.419 75.811 180.243 75.9865 180.068 76.162C179.103 77.2149 178.05 78.3556 177.786 78.6188C176.558 81.9531 176.032 84.6732 175.768 88.4462C176.558 87.5687 178.839 84.5854 179.454 83.7957Z" fill="#999999"/>
<path d="M136.283 85.9016C137.424 81.6021 138.916 77.3027 140.583 73.0909C139.53 74.7581 137.512 77.3904 135.143 79.8472C132.598 85.7261 132.159 89.4114 132.072 90.2888C133.827 88.8849 134.967 87.5687 136.283 85.9016Z" fill="#999999"/>
<path d="M219.991 64.141C219.904 64.4043 218.675 66.9488 218.588 67.2121C220.079 66.8611 224.291 66.9488 226.134 66.9488C221.659 65.8959 219.991 64.141 219.991 64.141Z" fill="#999999"/>
<path d="M120.402 59.4906C120.402 59.4906 125.491 60.8945 129.001 61.1577C129.001 61.1577 121.104 61.2455 119.173 62.1229L120.402 59.4906Z" fill="#999999"/>
<path d="M42.5726 47.6451C42.5726 47.6451 45.3804 47.0309 50.3818 46.7677C50.3818 46.7677 43.1868 48.6103 40.1158 50.7162L42.5726 47.6451Z" fill="#999999"/>
<path d="M75.5644 77.1272C73.0198 83.8835 73.5463 87.481 73.5463 87.6565C74.8625 86.4281 76.1786 84.8487 77.3193 83.4448C77.407 82.5673 77.4948 79.4086 79.1619 73.6174C78.9864 73.7929 75.8277 76.9517 75.5644 77.1272Z" fill="#999999"/>
<path d="M133.388 18.865C132.861 22.1993 131.37 25.0949 128.913 27.5517C125.754 30.6227 121.893 32.2021 117.331 32.2021C112.768 32.2021 108.907 30.6227 105.748 27.5517C102.59 24.4806 101.01 20.6199 101.01 16.1449C101.01 11.67 102.59 7.80924 105.748 4.73819C108.907 1.66714 112.768 0.0877437 117.331 0.0877437C121.893 0.0877437 125.754 1.66714 128.913 4.73819C131.37 7.19503 132.861 10.0906 133.388 13.4249H123.297C122.244 11.2313 119.875 9.65187 117.243 9.65187C113.558 9.65187 110.487 12.6352 110.487 16.4082C110.487 20.0934 113.47 23.1645 117.243 23.1645C120.051 23.1645 122.42 21.4973 123.385 19.1282H133.388V18.865ZM134.353 0.701953V9.21315H141.636V31.4124H150.41V9.21315H157.693V0.701953H134.353ZM98.6412 16.0572C98.6412 20.6199 97.0618 24.3929 93.903 27.464C90.7442 30.535 86.8834 32.1144 82.3207 32.1144C77.758 32.1144 73.8973 30.535 70.7385 27.464C67.5797 24.3929 66.0003 20.5322 66.0003 16.0572C66.0003 11.5822 67.5797 7.72149 70.7385 4.65044C73.8973 1.5794 77.758 0 82.3207 0C86.8834 0 90.7442 1.5794 93.903 4.65044C97.0618 7.72149 98.6412 11.4945 98.6412 16.0572ZM88.9893 16.1449C88.9893 12.4597 86.006 9.38863 82.233 9.38863C78.46 9.38863 75.4767 12.3719 75.4767 16.1449C75.4767 19.8302 78.46 22.9012 82.233 22.9012C86.006 22.9012 88.9893 19.9179 88.9893 16.1449ZM191.211 16.0572C191.211 20.6199 189.632 24.3929 186.473 27.464C183.314 30.535 179.454 32.1144 174.891 32.1144C170.328 32.1144 166.467 30.535 163.309 27.464C160.15 24.3929 158.57 20.5322 158.57 16.0572C158.57 11.5822 160.15 7.72149 163.309 4.65044C166.467 1.5794 170.328 0 174.891 0C179.454 0 183.314 1.5794 186.473 4.65044C189.632 7.72149 191.211 11.4945 191.211 16.0572ZM181.735 16.0572C181.735 12.3719 178.752 9.30089 174.979 9.30089C171.293 9.30089 168.222 12.2842 168.222 16.0572C168.222 19.7425 171.206 22.8135 174.979 22.8135C178.664 22.7258 181.735 19.7425 181.735 16.0572ZM64.0699 16.0572C64.0699 20.4444 62.666 24.0419 59.7705 27.0252C56.8749 30.0085 53.3651 31.4124 49.1534 31.4124H34.8511V0.701953H49.1534C53.3651 0.701953 56.9626 2.19361 59.7705 5.08917C62.666 7.98473 64.0699 11.67 64.0699 16.0572ZM55.471 15.8817C55.471 12.1965 52.4877 9.1254 48.7147 9.1254C45.0294 9.1254 41.9584 12.1087 41.9584 15.8817C41.9584 19.567 44.9417 22.638 48.7147 22.638C52.3999 22.638 55.471 19.6547 55.471 15.8817ZM219.991 31.4124L210.252 31.3247C210.252 31.4124 202.355 21.6728 202.355 21.6728V31.3247H193.58V0.61421H205.865C206.128 0.61421 206.303 0.61421 206.567 0.61421C206.654 0.61421 206.742 0.61421 206.83 0.61421C206.918 0.61421 207.005 0.61421 207.093 0.61421H207.181C213.323 0.61421 218.324 5.61563 218.324 11.7577C218.324 15.9695 215.955 19.6547 212.533 21.4973C214.376 24.3052 219.991 31.4124 219.991 31.4124ZM205.601 15.6185C207.883 15.6185 209.725 13.7758 209.725 11.4945C209.725 9.21315 207.883 7.37052 205.601 7.37052C203.32 7.37052 201.477 9.21315 201.477 11.4945C201.477 13.7758 203.32 15.6185 205.601 15.6185Z" fill="white"/>
</svg>
