<?xml version="1.0" encoding="utf-8"?>
<!-- Generator: Adobe Illustrator 24.0.0, SVG Export Plug-In . SVG Version: 6.00 Build 0)  -->
<svg version="1.1" id="Layer_1" xmlns="http://www.w3.org/2000/svg" xmlns:xlink="http://www.w3.org/1999/xlink" x="0px" y="0px"
	 viewBox="0 0 30 30" style="enable-background:new 0 0 30 30;" xml:space="preserve">
<style type="text/css">
	.st0{fill:#FFFFFF;}
</style>
<path class="st0" d="M15,1.2c1,0,1.8,0.8,1.8,1.8S16,4.7,15,4.7S13.2,3.9,13.2,3S14,1.2,15,1.2 M15,0.3c-1.5,0-2.7,1.2-2.7,2.7
	s1.2,2.7,2.7,2.7c1.5,0,2.7-1.2,2.7-2.7S16.5,0.3,15,0.3L15,0.3z M21,2.8c1,0,1.8,0.8,1.8,1.8S22,6.3,21,6.3c-1,0-1.8-0.8-1.8-1.8
	S20.1,2.8,21,2.8 M21,1.9c-1.5,0-2.7,1.2-2.7,2.7s1.2,2.7,2.7,2.7s2.7-1.2,2.7-2.7S22.5,1.9,21,1.9L21,1.9z M25.4,7.2
	c1,0,1.8,0.8,1.8,1.8s-0.8,1.8-1.8,1.8c-1,0-1.8-0.8-1.8-1.8S24.4,7.2,25.4,7.2 M25.4,6.3c-1.5,0-2.7,1.2-2.7,2.7s1.2,2.7,2.7,2.7
	c1.5,0,2.7-1.2,2.7-2.7S26.9,6.3,25.4,6.3L25.4,6.3z M26.9,13.2c1,0,1.8,0.8,1.8,1.8s-0.8,1.8-1.8,1.8c-1,0-1.8-0.8-1.8-1.8
	S26,13.2,26.9,13.2 M26.9,12.3c-1.5,0-2.7,1.2-2.7,2.7s1.2,2.7,2.7,2.7c1.5,0,2.7-1.2,2.7-2.7S28.4,12.3,26.9,12.3L26.9,12.3z
	 M25.4,19.2c1,0,1.8,0.8,1.8,1.8c0,1-0.8,1.8-1.8,1.8S23.7,22,23.7,21C23.7,20,24.5,19.2,25.4,19.2 M25.4,18.3
	c-1.5,0-2.7,1.2-2.7,2.7c0,1.5,1.2,2.7,2.7,2.7s2.7-1.2,2.7-2.7C28.1,19.5,26.9,18.3,25.4,18.3L25.4,18.3z M21,23.6
	c1,0,1.8,0.8,1.8,1.8c0,1-0.8,1.8-1.8,1.8c-1,0-1.8-0.8-1.8-1.8C19.3,24.4,20.1,23.6,21,23.6 M21,22.7c-1.5,0-2.7,1.2-2.7,2.7
	S19.6,28,21,28s2.7-1.2,2.7-2.7S22.5,22.7,21,22.7L21,22.7z M15,25.2c1,0,1.8,0.8,1.8,1.8c0,1-0.8,1.8-1.8,1.8c-1,0-1.8-0.8-1.8-1.8
	C13.3,26,14.1,25.2,15,25.2 M15,24.3c-1.5,0-2.7,1.2-2.7,2.7s1.2,2.7,2.7,2.7s2.7-1.2,2.7-2.7S16.5,24.3,15,24.3L15,24.3z M9,23.6
	c1,0,1.8,0.8,1.8,1.8S9.9,27.1,9,27.1s-1.8-0.8-1.8-1.8S8,23.6,9,23.6 M9,22.7c-1.5,0-2.7,1.2-2.7,2.7S7.5,28,9,28s2.7-1.2,2.7-2.7
	S10.4,22.7,9,22.7L9,22.7z M4.6,19.2c1,0,1.8,0.8,1.8,1.8c0,1-0.8,1.8-1.8,1.8S2.9,21.9,2.9,21C2.9,20,3.7,19.2,4.6,19.2 M4.6,18.3
	C3.2,18.3,2,19.5,2,21s1.2,2.7,2.7,2.7s2.7-1.2,2.7-2.7S6.1,18.3,4.6,18.3L4.6,18.3z M3.1,13.2c1,0,1.8,0.8,1.8,1.8
	s-0.8,1.8-1.8,1.8S1.3,15.9,1.3,15S2.1,13.2,3.1,13.2 M3.1,12.3c-1.5,0-2.7,1.2-2.7,2.7s1.2,2.7,2.7,2.7s2.7-1.2,2.7-2.7
	S4.6,12.3,3.1,12.3L3.1,12.3z M4.6,7.3c1,0,1.8,0.8,1.8,1.8s-0.8,1.8-1.8,1.8S2.8,10,2.8,9S3.6,7.3,4.6,7.3 M4.6,6.4
	C3.2,6.4,2,7.6,2,9s1.2,2.7,2.7,2.7S7.3,10.5,7.3,9S6.1,6.4,4.6,6.4L4.6,6.4z M9,2.8c1,0,1.8,0.8,1.8,1.8S10,6.4,9,6.4
	S7.2,5.6,7.2,4.6S8,2.8,9,2.8 M9,2C7.5,2,6.4,3.2,6.4,4.6S7.5,7.3,9,7.3s2.7-1.2,2.7-2.7S10.5,2,9,2L9,2z M15,7.1
	c1,0,1.8,0.8,1.8,1.8S16,10.7,15,10.7s-1.8-0.8-1.8-1.8S14,7.1,15,7.1 M15,6.3c-1.5,0-2.7,1.2-2.7,2.7s1.2,2.7,2.7,2.7
	c1.5,0,2.7-1.2,2.7-2.7S16.5,6.3,15,6.3L15,6.3z M20.2,10.2c1,0,1.8,0.8,1.8,1.8s-0.8,1.8-1.8,1.8c-1,0-1.8-0.8-1.8-1.8
	S19.2,10.2,20.2,10.2 M20.2,9.3c-1.5,0-2.7,1.2-2.7,2.7s1.2,2.7,2.7,2.7c1.5,0,2.7-1.2,2.7-2.7S21.7,9.3,20.2,9.3L20.2,9.3z
	 M20.3,16.2c1,0,1.8,0.8,1.8,1.8c0,1-0.8,1.8-1.8,1.8c-1,0-1.8-0.8-1.8-1.8C18.5,17,19.3,16.2,20.3,16.2 M20.3,15.3
	c-1.5,0-2.7,1.2-2.7,2.7s1.2,2.7,2.7,2.7c1.5,0,2.7-1.2,2.7-2.7S21.8,15.3,20.3,15.3L20.3,15.3z M15,19.1c1,0,1.8,0.8,1.8,1.8
	c0,1-0.8,1.8-1.8,1.8s-1.8-0.8-1.8-1.8C13.2,19.9,14,19.1,15,19.1 M15,18.2c-1.5,0-2.7,1.2-2.7,2.7s1.2,2.7,2.7,2.7
	c1.5,0,2.7-1.2,2.7-2.7S16.5,18.2,15,18.2L15,18.2z M9.8,16.1c1,0,1.8,0.8,1.8,1.8c0,1-0.8,1.8-1.8,1.8s-1.8-0.8-1.8-1.8
	C8.1,16.9,8.9,16.1,9.8,16.1 M9.8,15.3c-1.5,0-2.7,1.2-2.7,2.7c0,1.5,1.2,2.7,2.7,2.7s2.7-1.2,2.7-2.7C12.5,16.5,11.3,15.3,9.8,15.3
	L9.8,15.3z M9.8,10.1c1,0,1.8,0.8,1.8,1.8s-0.8,1.8-1.8,1.8s-1.8-0.8-1.8-1.8S8.9,10.1,9.8,10.1 M9.8,9.3c-1.5,0-2.7,1.2-2.7,2.7
	s1.2,2.7,2.7,2.7s2.7-1.2,2.7-2.7S11.3,9.3,9.8,9.3L9.8,9.3z"/>
</svg>
