<svg width="50" height="50" viewBox="0 0 50 50" fill="none" xmlns="http://www.w3.org/2000/svg">
<circle cx="25" cy="25" r="25" fill="#02CCE0"/>
<path d="M18.043 19.1976C18.705 19.6673 19.036 20.3718 19.036 21.546C19.036 22.4853 18.8153 23.1898 18.2637 23.7769C17.8223 24.2465 17.0499 24.4814 16.1673 24.4814H12.8571V12.8571H16.3879C17.381 12.8571 18.2637 13.092 18.8153 13.679C19.367 14.2661 19.698 15.088 19.698 16.1448C19.5877 17.6712 19.036 18.6105 18.043 19.1976ZM18.2637 16.2622C18.2637 14.8532 17.6016 14.1487 16.2776 14.1487H14.1812V18.3757H16.2776C17.6016 18.3757 18.2637 17.6712 18.2637 16.2622ZM16.1673 23.0724C17.2706 23.0724 17.712 22.4853 17.712 21.3111C17.712 20.137 17.1603 19.6673 16.1673 19.6673H14.1812V23.0724H16.1673ZM24.4425 12.8571C25.5459 12.8571 26.3182 13.2094 26.8699 13.7965C27.4216 14.3835 27.7526 15.3229 27.7526 16.497C27.7526 17.6712 27.4216 18.4931 26.8699 19.0802C26.3182 19.6673 25.5459 20.0195 24.4425 20.0195H22.4565V23.6595H21.1324V12.8571H24.4425ZM24.3322 18.6105C24.9942 18.6105 25.5459 18.3757 25.8769 18.0235C26.2079 17.6712 26.3182 17.0841 26.3182 16.3796C26.3182 15.6751 26.2079 15.088 25.8769 14.7358C25.5459 14.3835 24.9942 14.1487 24.3322 14.1487H22.4565V18.6105H24.3322ZM33.1591 21.3111H29.6283L28.7456 24.364H27.4216L30.511 13.679H32.2764L35.3659 24.364H34.0418L33.1591 21.3111ZM32.8281 20.0195L31.3937 15.2055L30.0697 20.0195H32.8281ZM14.1812 29.0606V33.1702H18.374V34.4618H14.1812V38.454H12.8571V27.7691H18.8153V29.0606H14.1812ZM23.6702 29.2955C24.0012 29.2955 24.2218 29.2955 24.3322 29.2955V30.5871H23.7805C23.1185 30.5871 22.6771 30.8219 22.2358 31.2916C21.7944 31.7612 21.6841 32.3483 21.6841 33.0528V37.5147H20.3601V28.3561H21.6841V30.3522C22.1254 29.6477 22.7875 29.2955 23.6702 29.2955ZM26.7596 33.7573V34.9315C26.7596 35.636 26.9803 36.2231 27.3113 36.6927C27.6423 37.045 28.194 37.2798 28.7456 37.2798C29.4077 37.2798 29.849 37.1624 30.18 36.8102C30.511 36.4579 30.6214 35.9882 30.7317 35.1663H32.0558C31.8351 37.3972 30.842 38.5714 28.7456 38.5714C27.7526 38.5714 26.9803 38.2191 26.3182 37.6321C25.6562 37.045 25.5459 35.9882 25.5459 34.8141V31.9961C25.5459 30.9393 25.8769 30 26.4286 29.4129C26.9803 28.8258 27.863 28.4736 28.856 28.4736C29.849 28.4736 30.6214 28.8258 31.2834 29.4129C31.9454 30 32.1661 30.9393 32.1661 31.9961V33.7573H26.7596ZM28.7456 29.6477C28.0836 29.6477 27.6423 29.8826 27.3113 30.2348C26.9803 30.5871 26.7596 31.1741 26.7596 31.9961V32.5831H30.7317V31.8786C30.7317 31.1741 30.511 30.5871 30.18 30.2348C29.849 29.8826 29.4077 29.6477 28.7456 29.6477ZM34.7038 33.5225V34.5792C34.7038 35.2837 34.9245 35.8708 35.2555 36.3405C35.5865 36.8101 36.1382 36.9276 36.6899 36.9276C37.3519 36.9276 37.7933 36.8101 38.1243 36.4579C38.4553 36.1056 38.5656 35.636 38.676 34.8141H40C39.7793 37.045 38.7863 38.2191 36.6899 38.2191C35.6969 38.2191 34.9245 37.8669 34.2625 37.2798C33.6005 36.6927 33.3798 35.7534 33.3798 34.6966V32.1135C33.3798 31.0567 33.7108 30.1174 34.2625 29.5303C34.8142 28.9432 35.6969 28.591 36.6899 28.591C37.6829 28.591 38.4553 28.9432 39.1173 29.5303C39.7793 30.1174 40 31.0567 40 32.1135V33.6399H34.7038V33.5225ZM36.6899 29.6477C36.0279 29.6477 35.5865 29.8826 35.2555 30.2348C34.9245 30.5871 34.7038 31.1741 34.7038 31.9961V32.4657H38.676V31.9961C38.676 31.2916 38.4553 30.7045 38.1243 30.3522C37.7933 30 37.2416 29.6477 36.6899 29.6477Z" fill="white"/>
</svg>
