<svg width="50" height="50" viewBox="0 0 50 50" fill="none" xmlns="http://www.w3.org/2000/svg">
<circle cx="25" cy="25" r="25" fill="#41B60E"/>
<path d="M24.2857 8.27988C25.5577 8.27988 26.5753 9.29057 26.5753 10.5539C26.5753 11.8173 25.5577 12.7016 24.2857 12.7016C23.0137 12.7016 21.9961 11.691 21.9961 10.5539C21.9961 9.41691 23.0137 8.27988 24.2857 8.27988ZM24.2857 7.14285C22.3777 7.14285 20.8513 8.65889 20.8513 10.5539C20.8513 12.449 22.3777 13.965 24.2857 13.965C26.1937 13.965 27.7202 12.449 27.7202 10.5539C27.7202 8.65889 26.1937 7.14285 24.2857 7.14285ZM31.9178 10.3013C33.1898 10.3013 34.2074 11.3119 34.2074 12.5753C34.2074 13.8387 33.1898 14.723 31.9178 14.723C30.6458 14.723 29.6282 13.7123 29.6282 12.449C29.6282 11.1856 30.773 10.3013 31.9178 10.3013ZM31.9178 9.16423C30.0098 9.16423 28.4834 10.6803 28.4834 12.5753C28.4834 14.4704 30.0098 15.9864 31.9178 15.9864C33.8258 15.9864 35.3523 14.4704 35.3523 12.5753C35.3523 10.6803 33.8258 9.16423 31.9178 9.16423ZM37.5147 15.8601C38.7867 15.8601 39.8043 16.8707 39.8043 18.1341C39.8043 19.3975 38.7867 20.4082 37.5147 20.4082C36.2427 20.4082 35.225 19.3975 35.225 18.1341C35.225 16.8707 36.2427 15.8601 37.5147 15.8601ZM37.5147 14.723C35.6067 14.723 34.0802 16.2391 34.0802 18.1341C34.0802 20.0291 35.6067 21.5452 37.5147 21.5452C39.4227 21.5452 40.9491 20.0291 40.9491 18.1341C40.9491 16.2391 39.4227 14.723 37.5147 14.723ZM39.4227 23.4402C40.6947 23.4402 41.7123 24.4509 41.7123 25.7143C41.7123 26.9776 40.6947 27.9883 39.4227 27.9883C38.1507 27.9883 37.1331 26.9776 37.1331 25.7143C37.1331 24.4509 38.2779 23.4402 39.4227 23.4402ZM39.4227 22.3032C37.5147 22.3032 35.9883 23.8192 35.9883 25.7143C35.9883 27.6093 37.5147 29.1254 39.4227 29.1254C41.3307 29.1254 42.8571 27.6093 42.8571 25.7143C42.8571 23.8192 41.3307 22.3032 39.4227 22.3032ZM37.5147 31.0204C38.7867 31.0204 39.8043 32.0311 39.8043 33.2945C39.8043 34.5578 38.7867 35.5685 37.5147 35.5685C36.2427 35.5685 35.3523 34.5578 35.3523 33.2945C35.3523 32.0311 36.3699 31.0204 37.5147 31.0204ZM37.5147 29.8834C35.6067 29.8834 34.0802 31.3994 34.0802 33.2945C34.0802 35.1895 35.6067 36.7055 37.5147 36.7055C39.4227 36.7055 40.9491 35.1895 40.9491 33.2945C40.9491 31.3994 39.4227 29.8834 37.5147 29.8834ZM31.9178 36.5792C33.1898 36.5792 34.2074 37.5899 34.2074 38.8533C34.2074 40.1166 33.1898 41.1273 31.9178 41.1273C30.6458 41.1273 29.6282 40.1166 29.6282 38.8533C29.7554 37.5899 30.773 36.5792 31.9178 36.5792ZM31.9178 35.4422C30.0098 35.4422 28.4834 36.9582 28.4834 38.8533C28.4834 40.7483 30.137 42.138 31.9178 42.138C33.6986 42.138 35.3523 40.622 35.3523 38.7269C35.3523 36.8319 33.8258 35.4422 31.9178 35.4422ZM24.2857 38.6006C25.5577 38.6006 26.5753 39.6113 26.5753 40.8746C26.5753 42.138 25.5577 43.1487 24.2857 43.1487C23.0137 43.1487 21.9961 42.138 21.9961 40.8746C22.1233 39.6113 23.1409 38.6006 24.2857 38.6006ZM24.2857 37.4636C22.3777 37.4636 20.8513 38.9796 20.8513 40.8746C20.8513 42.7697 22.3777 44.2857 24.2857 44.2857C26.1937 44.2857 27.7202 42.7697 27.7202 40.8746C27.7202 38.9796 26.1937 37.4636 24.2857 37.4636ZM16.6536 36.5792C17.9256 36.5792 18.9432 37.5899 18.9432 38.8533C18.9432 40.1166 17.7984 41.001 16.6536 41.001C15.5088 41.001 14.364 39.9903 14.364 38.7269C14.364 37.4636 15.3816 36.5792 16.6536 36.5792ZM16.6536 35.4422C14.7456 35.4422 13.2192 36.9582 13.2192 38.8533C13.2192 40.7483 14.7456 42.138 16.6536 42.138C18.5616 42.138 20.0881 40.622 20.0881 38.7269C20.0881 36.8319 18.4344 35.4422 16.6536 35.4422ZM11.0568 31.0204C12.3288 31.0204 13.3464 32.0311 13.3464 33.2945C13.3464 34.5578 12.3288 35.5685 11.0568 35.5685C9.78474 35.5685 8.89433 34.4315 8.89433 33.2945C8.89433 32.0311 9.91194 31.0204 11.0568 31.0204ZM11.0568 29.8834C9.27593 29.8834 7.74951 31.3994 7.74951 33.2945C7.74951 35.1895 9.27593 36.7055 11.184 36.7055C13.092 36.7055 14.6184 35.1895 14.6184 33.2945C14.6184 31.3994 12.9648 29.8834 11.0568 29.8834ZM9.14873 23.4402C10.4207 23.4402 11.4384 24.4509 11.4384 25.7143C11.4384 26.9776 10.4207 27.9883 9.14873 27.9883C7.87671 27.9883 6.8591 26.8513 6.8591 25.7143C6.8591 24.5773 7.87671 23.4402 9.14873 23.4402ZM9.14873 22.3032C7.24071 22.3032 5.71429 23.8192 5.71429 25.7143C5.71429 27.6093 7.24071 29.1254 9.14873 29.1254C11.0568 29.1254 12.5832 27.6093 12.5832 25.7143C12.5832 23.8192 11.0568 22.3032 9.14873 22.3032ZM11.0568 15.9864C12.3288 15.9864 13.3464 16.9971 13.3464 18.2604C13.3464 19.5238 12.3288 20.5345 11.0568 20.5345C9.78474 20.5345 8.76712 19.3975 8.76712 18.1341C8.76712 16.8707 9.78474 15.9864 11.0568 15.9864ZM11.0568 14.8494C9.27593 14.8494 7.74951 16.3654 7.74951 18.1341C7.74951 19.9028 9.27593 21.5452 11.184 21.5452C13.092 21.5452 14.4912 20.0291 14.4912 18.1341C14.4912 16.2391 12.9648 14.8494 11.0568 14.8494ZM16.6536 10.3013C17.9256 10.3013 18.9432 11.3119 18.9432 12.5753C18.9432 13.8387 17.9256 14.8494 16.6536 14.8494C15.3816 14.8494 14.364 13.8387 14.364 12.5753C14.364 11.3119 15.3816 10.3013 16.6536 10.3013ZM16.6536 9.29057C14.7456 9.29057 13.3464 10.8066 13.3464 12.5753C13.3464 14.344 14.7456 15.9864 16.6536 15.9864C18.5616 15.9864 20.0881 14.4704 20.0881 12.5753C20.0881 10.6803 18.5616 9.29057 16.6536 9.29057ZM24.2857 15.7337C25.5577 15.7337 26.5753 16.7444 26.5753 18.0078C26.5753 19.2711 25.5577 20.2818 24.2857 20.2818C23.0137 20.2818 21.9961 19.2711 21.9961 18.0078C21.9961 16.7444 23.0137 15.7337 24.2857 15.7337ZM24.2857 14.723C22.3777 14.723 20.8513 16.2391 20.8513 18.1341C20.8513 20.0291 22.3777 21.5452 24.2857 21.5452C26.1937 21.5452 27.7202 20.0291 27.7202 18.1341C27.7202 16.2391 26.1937 14.723 24.2857 14.723ZM30.9002 19.6501C32.1722 19.6501 33.1898 20.6608 33.1898 21.9242C33.1898 23.1876 32.1722 24.1982 30.9002 24.1982C29.6282 24.1982 28.6106 23.1876 28.6106 21.9242C28.6106 20.6608 29.6282 19.6501 30.9002 19.6501ZM30.9002 18.5131C28.9922 18.5131 27.4658 20.0291 27.4658 21.9242C27.4658 23.8192 28.9922 25.3353 30.9002 25.3353C32.8082 25.3353 34.3346 23.8192 34.3346 21.9242C34.3346 20.0291 32.8082 18.5131 30.9002 18.5131ZM31.0274 27.2303C32.2994 27.2303 33.317 28.241 33.317 29.5044C33.317 30.7677 32.2994 31.7784 31.0274 31.7784C29.7554 31.7784 28.7378 30.7677 28.7378 29.5044C28.7378 28.241 29.7554 27.2303 31.0274 27.2303ZM31.0274 26.0933C29.1194 26.0933 27.593 27.6093 27.593 29.5044C27.593 31.3994 29.1194 32.9154 31.0274 32.9154C32.9354 32.9154 34.4618 31.3994 34.4618 29.5044C34.4618 27.6093 32.9354 26.0933 31.0274 26.0933ZM24.2857 30.8941C25.5577 30.8941 26.5753 31.9048 26.5753 33.1681C26.5753 34.4315 25.5577 35.4422 24.2857 35.4422C23.0137 35.4422 21.9961 34.4315 21.9961 33.1681C21.9961 31.9048 23.0137 30.8941 24.2857 30.8941ZM24.2857 29.757C22.3777 29.757 20.8513 31.2731 20.8513 33.1681C20.8513 35.0632 22.3777 36.5792 24.2857 36.5792C26.1937 36.5792 27.7202 35.0632 27.7202 33.1681C27.7202 31.2731 26.1937 29.757 24.2857 29.757ZM17.6712 27.104C18.9432 27.104 19.9609 28.1147 19.9609 29.378C19.9609 30.6414 18.9432 31.6521 17.6712 31.6521C16.3992 31.6521 15.3816 30.6414 15.3816 29.378C15.5088 28.1147 16.5264 27.104 17.6712 27.104ZM17.6712 26.0933C15.7632 26.0933 14.2368 27.6093 14.2368 29.5044C14.2368 31.3994 15.7632 32.9154 17.6712 32.9154C19.5793 32.9154 21.1057 31.3994 21.1057 29.5044C21.1057 27.6093 19.5793 26.0933 17.6712 26.0933ZM17.6712 19.5238C18.9432 19.5238 19.9609 20.5345 19.9609 21.7979C19.9609 23.0612 18.9432 24.0719 17.6712 24.0719C16.3992 24.0719 15.3816 23.0612 15.3816 21.7979C15.3816 20.5345 16.5264 19.5238 17.6712 19.5238ZM17.6712 18.5131C15.7632 18.5131 14.2368 20.0291 14.2368 21.9242C14.2368 23.8192 15.7632 25.3353 17.6712 25.3353C19.5793 25.3353 21.1057 23.8192 21.1057 21.9242C21.1057 20.0291 19.5793 18.5131 17.6712 18.5131Z" fill="white"/>
</svg>
