<svg width="50" height="50" viewBox="0 0 50 50" fill="none" xmlns="http://www.w3.org/2000/svg">
<circle cx="25" cy="25" r="25" fill="#ED820E"/>
<path d="M28.6111 37.1818H18.9815C18.7407 37.1818 18.5 36.9394 18.5 36.697C18.5 36.4545 18.7407 36.2121 18.9815 36.2121H28.1296V35.3636C28.1296 34.5152 28.25 33.7879 28.3704 32.9394C28.6111 31.8485 29.5741 31.1212 30.7778 31.1212H31.8611C32.9444 31.1212 33.9074 30.1515 33.9074 29.0606V24.9394C33.9074 24.697 34.1481 24.4545 34.3889 24.4545H36.9167L35.2315 19.3636V19.2424C35.1111 13.0606 30.1759 7.9697 24.037 7.9697C18.0185 7.9697 13.0833 13.0606 13.0833 19.1212C13.0833 22.7576 15.3704 26.3939 17.8981 29.6667C18.9815 31.1212 19.463 33.7879 19.463 33.9091C19.463 34.1515 19.3426 34.5152 18.9815 34.5152C18.7407 34.5152 18.3796 34.3939 18.3796 34.1515C18.3796 34.1515 17.8981 31.6061 16.9352 30.3939C14.4074 26.8788 12 23.1212 12 19.1212C12 12.4545 17.4167 7 24.037 7C30.6574 7 36.0741 12.4545 36.0741 19.1212L38 24.8182C38 24.9394 38 25.1818 37.8796 25.303C37.7593 25.4242 37.6389 25.5455 37.3981 25.5455H34.8704V28.9394C34.8704 30.6364 33.4259 32.0909 31.7407 32.0909H30.6574C30.0556 32.0909 29.4537 32.5758 29.3333 33.1818C29.213 33.9091 29.0926 34.6364 29.0926 35.3636V36.8182C29.0926 36.9394 28.8519 37.1818 28.6111 37.1818ZM25.963 30.6364C25.7222 30.6364 25.4815 30.3939 25.4815 30.1515C25.4815 26.6364 25.4815 23 27.4074 20.3333H20.6667C22.5926 23 22.5926 26.6364 22.5926 30.1515C22.5926 30.3939 22.3519 30.6364 22.1111 30.6364C21.8704 30.6364 21.6296 30.3939 21.6296 30.1515C21.6296 26.2727 21.6296 22.6364 19.2222 20.2121C19.1019 20.0909 18.9815 19.8485 19.1019 19.6061C19.2222 19.3636 19.3426 19.2424 19.5833 19.2424H28.6111C28.8519 19.2424 28.9722 19.3636 29.0926 19.6061C29.213 19.8485 29.0926 20.0909 28.9722 20.2121C26.5648 22.6364 26.5648 26.2727 26.5648 30.1515C26.5648 30.3939 26.3241 30.6364 25.963 30.6364ZM25.3611 43H22.1111C20.0648 43 18.3796 41.303 18.3796 39.2424V38.7576H19.463V39.2424C19.463 40.697 20.6667 41.9091 22.1111 41.9091H25.3611C26.8056 41.9091 28.0093 40.697 28.0093 39.2424V38.7576H29.0926V39.2424C29.0926 41.303 27.4074 43 25.3611 43Z" fill="white"/>
</svg>
