<svg width="35" height="35" viewBox="0 0 35 35" fill="none" xmlns="http://www.w3.org/2000/svg">
<path d="M17.5 11.97C20.58 11.97 23.03 14.42 23.03 17.5C23.03 20.58 20.58 23.03 17.5 23.03C14.42 23.03 11.97 20.58 11.97 17.5C11.97 14.42 14.42 11.97 17.5 11.97ZM24.22 0H10.78C4.83 0 0 4.83 0 10.78V24.22C0 30.17 4.83 35 10.78 35H24.22C30.17 35 35 30.17 35 24.22V10.78C35 4.83 30.17 0 24.22 0ZM17.5 26.74C12.39 26.74 8.26 22.61 8.26 17.5C8.26 12.39 12.39 8.26 17.5 8.26C22.61 8.26 26.74 12.39 26.74 17.5C26.74 22.61 22.61 26.74 17.5 26.74ZM27.09 9.38C25.83 9.38 24.78 8.33 24.78 7.07C24.78 5.81 25.83 4.69 27.09 4.69C28.35 4.69 29.4 5.74 29.4 7.07C29.47 8.33 28.42 9.38 27.09 9.38Z" fill="white"/>
</svg>
