<svg width="410" height="2316" viewBox="0 0 410 2316" fill="none" xmlns="http://www.w3.org/2000/svg">
<path d="M3.46682 2250.33C13.534 2248.2 18.4008 2257.06 23.4677 2258.2C29.268 2259.46 38.6018 2251.93 47.4022 2259.8C55.3359 2266.86 47.3355 2282.8 44.1354 2289.67C40.9352 2296.67 28.8013 2318.4 21.7343 2315.47C16.4674 2313.27 21.3343 2300.2 15.8007 2298.87C10.1338 2297.53 9.00041 2312.07 3.13347 2311.53C2.00009 2311.4 0.933376 2310.8 0 2309.73V2252C1.06672 2251.2 2.2001 2250.6 3.46682 2250.33Z" fill="white"/>
<path d="M33.1349 2276.33C33.4682 2276.4 33.8016 2276.13 33.8682 2275.8C34.3349 2273.53 32.8682 2271.33 30.6014 2270.86C29.5347 2270.66 28.4013 2270.86 27.4679 2271.46C26.5346 2272.06 25.8679 2273 25.6678 2274.13C25.6012 2274.53 25.8012 2274.86 26.2012 2274.93C26.6012 2275 26.9346 2274.8 27.0012 2274.4C27.1346 2273.66 27.6013 2273.06 28.2013 2272.66C28.8013 2272.26 29.6014 2272.13 30.3347 2272.26C31.8015 2272.6 32.8015 2274.06 32.4682 2275.6C32.4682 2275.86 32.7348 2276.26 33.1349 2276.33ZM15.0674 2272.53C14.6673 2272.46 14.4673 2272.06 14.534 2271.73C14.8674 2270.2 13.8673 2268.73 12.4006 2268.4C11.6672 2268.26 10.9338 2268.4 10.2671 2268.8C9.66711 2269.2 9.20043 2269.86 9.06709 2270.53C9.00042 2270.93 8.6004 2271.13 8.26705 2271.06C7.86703 2271 7.66702 2270.6 7.73369 2270.26C7.9337 2269.2 8.6004 2268.2 9.53377 2267.6C10.4671 2267 11.6005 2266.8 12.6673 2267C14.934 2267.46 16.3341 2269.66 15.9341 2271.93C15.8007 2272.33 15.4674 2272.53 15.0674 2272.53C15.134 2272.53 15.0674 2272.53 15.0674 2272.53Z" fill="#292562"/>
<path d="M26.7346 2279.93C26.7346 2280.2 26.6679 2280.4 26.6012 2280.66C25.8012 2284.4 22.201 2285.86 18.3342 2285.06C14.4673 2284.26 11.7339 2281.46 12.5339 2277.73C12.6006 2277.46 12.6673 2277.26 12.7339 2277L26.7346 2279.93Z" fill="#231F20"/>
<path d="M42.5353 2285.8C45.3354 2279.73 50.5356 2268.26 44.5354 2262.93C40.6685 2259.53 36.735 2259.66 33.2015 2260.4C35.535 2261.06 37.9351 2262.2 40.3352 2264.06C46.8688 2269.26 45.4021 2278.06 42.5353 2285.8ZM23.4677 2258.2C23.4677 2258.2 6.40029 2258.93 5.80026 2254.46C5.40024 2251.66 9.66711 2250.8 12.4006 2251.33C15.334 2251.86 23.4677 2258.2 23.4677 2258.2Z" fill="#E6E7E8"/>
<path d="M31.1348 2281.2C31.1348 2282.33 32.4682 2283.33 34.0682 2283.33C35.735 2283.33 37.0017 2282.4 37.0017 2281.2C37.0017 2280.06 35.6683 2279.06 34.0682 2279.06C32.4682 2279.06 31.1348 2280 31.1348 2281.2ZM7.13365 2276.13C6.66697 2277.2 5.06689 2277.53 3.60015 2276.86C2.13342 2276.2 1.26672 2274.8 1.73341 2273.73C2.2001 2272.66 3.80017 2272.33 5.2669 2273C6.73363 2273.66 7.60034 2275.06 7.13365 2276.13Z" fill="#F27175"/>
<path d="M18.4008 2285.06C16.0007 2284.53 14.0006 2283.26 13.0673 2281.46C13.8673 2280.93 15.0674 2280.73 16.3341 2281C17.4008 2281.2 18.3342 2281.73 18.8675 2282.4C19.6676 2282.13 20.6676 2282.13 21.6677 2282.33C22.9344 2282.6 24.0011 2283.2 24.6678 2284C23.0677 2285.2 20.7343 2285.53 18.4008 2285.06Z" fill="#EC2227"/>
<circle cx="389.5" cy="1692.5" r="37.5" fill="#FF8500"/>
<circle cx="35.5" cy="1374.5" r="275.5" fill="#05BCCC"/>
<circle cx="60" cy="50" r="20" fill="#05BCCC"/>
<circle cx="412" cy="-12" r="236" fill="#05BCCC"/>
<path d="M35.5 1495.21L42.7 1508.24L50 1521.17H35.5H21L28.2 1508.24L35.5 1495.21Z" fill="#FFDE17"/>
<path d="M35.5 1470.69L38.3 1475.86L41.2 1481.03H35.5H29.8L32.6 1475.86L35.5 1470.69Z" fill="#FFDE17"/>
<path d="M379.5 2279.69L386.7 2292.72L394 2305.66H379.5H365L372.2 2292.72L379.5 2279.69Z" fill="#FFDE17"/>
<path d="M379.5 2255.17L382.3 2260.34L385.2 2265.52H379.5H373.8L376.6 2260.34L379.5 2255.17Z" fill="#FFDE17"/>
<path d="M406.006 271.643C394.407 269.185 388.8 279.401 382.962 280.707C376.28 282.167 365.526 273.487 355.387 282.551C346.246 290.693 355.464 309.051 359.151 316.962C362.838 325.027 376.817 350.068 384.959 346.688C391.028 344.154 385.42 329.098 391.796 327.562C398.325 326.026 399.63 342.771 406.39 342.156C407.696 342.003 408.925 341.311 410 340.082V273.564C408.771 272.642 407.465 271.951 406.006 271.643Z" fill="white"/>
<path d="M371.825 301.6C371.441 301.677 371.056 301.369 370.98 300.985C370.442 298.374 372.132 295.839 374.743 295.301C375.972 295.071 377.278 295.301 378.354 295.993C379.429 296.684 380.197 297.759 380.428 299.065C380.504 299.526 380.274 299.91 379.813 299.987C379.352 300.064 378.968 299.833 378.891 299.372C378.738 298.527 378.2 297.836 377.509 297.375C376.817 296.914 375.896 296.761 375.051 296.914C373.361 297.298 372.209 298.988 372.593 300.755C372.593 301.062 372.285 301.523 371.825 301.6ZM392.641 297.222C393.101 297.145 393.332 296.684 393.255 296.3C392.871 294.533 394.023 292.843 395.713 292.459C396.558 292.306 397.403 292.459 398.171 292.92C398.862 293.381 399.4 294.149 399.554 294.917C399.63 295.378 400.091 295.609 400.475 295.532C400.936 295.455 401.167 294.994 401.09 294.61C400.859 293.381 400.091 292.229 399.016 291.538C397.941 290.846 396.635 290.616 395.406 290.846C392.794 291.384 391.181 293.919 391.642 296.53C391.796 296.991 392.18 297.222 392.641 297.222C392.564 297.222 392.641 297.222 392.641 297.222Z" fill="#292562"/>
<path d="M379.199 305.748C379.199 306.055 379.275 306.285 379.352 306.593C380.274 310.894 384.422 312.584 388.877 311.662C393.332 310.74 396.481 307.514 395.559 303.213C395.483 302.906 395.406 302.675 395.329 302.368L379.199 305.748Z" fill="#231F20"/>
<path d="M360.994 312.507C357.768 305.517 351.777 292.306 358.69 286.161C363.145 282.243 367.677 282.397 371.748 283.242C369.059 284.01 366.294 285.316 363.529 287.467C356.001 293.458 357.691 303.597 360.994 312.507ZM382.962 280.707C382.962 280.707 402.626 281.552 403.317 276.406C403.778 273.18 398.862 272.181 395.713 272.796C392.333 273.41 382.962 280.707 382.962 280.707Z" fill="#E6E7E8"/>
<path d="M374.129 307.207C374.129 308.513 372.593 309.665 370.749 309.665C368.829 309.665 367.37 308.59 367.37 307.207C367.37 305.901 368.906 304.749 370.749 304.749C372.593 304.749 374.129 305.825 374.129 307.207ZM401.781 301.369C402.319 302.598 404.162 302.982 405.852 302.214C407.542 301.446 408.541 299.833 408.003 298.604C407.465 297.375 405.622 296.991 403.932 297.759C402.242 298.527 401.243 300.14 401.781 301.369Z" fill="#F27175"/>
<path d="M388.8 311.662C391.565 311.048 393.87 309.588 394.945 307.514C394.023 306.9 392.641 306.669 391.181 306.977C389.952 307.207 388.877 307.822 388.262 308.59C387.341 308.282 386.188 308.282 385.036 308.513C383.577 308.82 382.348 309.511 381.58 310.433C383.423 311.816 386.112 312.2 388.8 311.662Z" fill="#EC2227"/>
</svg>
