<svg width="48" height="66" viewBox="0 0 48 66" fill="none" xmlns="http://www.w3.org/2000/svg">
<path d="M0.466793 0.329951C10.5339 -1.80348 15.4008 7.06359 20.4677 8.19698C26.268 9.4637 35.6017 1.93002 44.4021 9.79705C52.3358 16.864 44.3355 32.7981 41.1353 39.6651C37.9352 46.6654 25.8013 68.3997 18.7343 65.4663C13.4674 63.2662 18.3343 50.1989 12.8007 48.8655C7.13377 47.5321 6.00038 62.0661 0.133442 61.5328C-0.999943 61.3994 -2.06665 60.7994 -3.00003 59.7327V1.99669C-1.93332 1.19666 -0.799934 0.596629 0.466793 0.329951Z" fill="white"/>
<path d="M30.1348 26.3311C30.4682 26.3978 30.8015 26.1311 30.8682 25.7978C31.3349 23.531 29.8681 21.3309 27.6014 20.8642C26.5346 20.6642 25.4013 20.8642 24.4679 21.4642C23.5345 22.0643 22.8678 22.9976 22.6678 24.131C22.6011 24.531 22.8011 24.8644 23.2012 24.9311C23.6012 24.9977 23.9345 24.7977 24.0012 24.3977C24.1345 23.6643 24.6012 23.0643 25.2013 22.6643C25.8013 22.2643 26.6013 22.1309 27.3347 22.2643C28.8014 22.5976 29.8015 24.0644 29.4681 25.5978C29.4681 25.8644 29.7348 26.2645 30.1348 26.3311ZM12.0673 22.531C11.6673 22.4643 11.4673 22.0643 11.534 21.7309C11.8673 20.1975 10.8673 18.7308 9.40053 18.3974C8.66716 18.2641 7.93379 18.3974 7.26709 18.7974C6.66707 19.1975 6.20038 19.8642 6.06704 20.5309C6.00037 20.9309 5.60035 21.1309 5.267 21.0642C4.86698 20.9976 4.66698 20.5975 4.73365 20.2642C4.93366 19.1975 5.60035 18.1974 6.53373 17.5974C7.4671 16.9974 8.60049 16.7974 9.66721 16.9974C11.934 17.4641 13.334 19.6642 12.934 21.9309C12.8007 22.3309 12.4673 22.531 12.0673 22.531C12.134 22.531 12.0673 22.531 12.0673 22.531Z" fill="#292562"/>
<path d="M23.7345 29.9313C23.7345 30.1979 23.6679 30.398 23.6012 30.6646C22.8012 34.3981 19.201 35.8649 15.3341 35.0648C11.4673 34.2648 8.73383 31.4647 9.53387 27.7312C9.60054 27.4645 9.66721 27.2645 9.73388 26.9978L23.7345 29.9313Z" fill="#231F20"/>
<path d="M39.5352 35.7983C42.3354 29.7313 47.5356 18.2642 41.5353 12.9306C37.6685 9.53042 33.735 9.66376 30.2015 10.3971C32.5349 11.0638 34.935 12.1972 37.3351 14.064C43.8688 19.2642 42.402 28.0646 39.5352 35.7983ZM20.4677 8.19702C20.4677 8.19702 3.40026 8.93039 2.80023 4.46352C2.40021 1.66339 6.66708 0.796684 9.40053 1.33004C12.334 1.8634 20.4677 8.19702 20.4677 8.19702Z" fill="#E6E7E8"/>
<path d="M28.1347 31.1981C28.1347 32.3315 29.4681 33.3316 31.0682 33.3316C32.735 33.3316 34.0017 32.3982 34.0017 31.1981C34.0017 30.0647 32.6683 29.0647 31.0682 29.0647C29.4681 29.0647 28.1347 29.9981 28.1347 31.1981ZM4.13364 26.1312C3.66695 27.1979 2.06688 27.5313 0.60014 26.8646C-0.866592 26.1979 -1.7333 24.7978 -1.26661 23.7311C-0.799919 22.6644 0.800152 22.3311 2.26688 22.9978C3.73362 23.6645 4.60033 25.0645 4.13364 26.1312Z" fill="#F27175"/>
<path d="M15.4008 35.0648C13.0007 34.5315 11.0006 33.2647 10.0673 31.4647C10.8673 30.9313 12.0673 30.7313 13.3341 30.998C14.4008 31.198 15.3342 31.7313 15.8675 32.398C16.6676 32.1314 17.6676 32.1314 18.6676 32.3314C19.9344 32.5981 21.0011 33.1981 21.6678 33.9981C20.0677 35.1982 17.7343 35.5315 15.4008 35.0648Z" fill="#EC2227"/>
</svg>
