<svg width="59" height="76" viewBox="0 0 59 76" fill="none" xmlns="http://www.w3.org/2000/svg">
<path d="M54.5389 0.380143C42.9403 -2.07783 37.3331 8.13812 31.4954 9.44392C24.8128 10.9033 14.0591 2.22362 3.92 11.2874C-5.22058 19.4294 3.99681 37.7874 7.68377 45.699C11.3707 53.7642 25.3504 78.8048 33.4925 75.4251C39.5606 72.8903 33.9534 57.8352 40.3287 56.299C46.8577 54.7628 48.1635 71.5077 54.9229 70.8932C56.2287 70.7396 57.4577 70.0483 58.5331 68.8193V2.30043C57.3041 1.37869 55.9983 0.68739 54.5389 0.380143Z" fill="white"/>
<path d="M20.3577 30.3367C19.9736 30.4135 19.5895 30.1063 19.5127 29.7222C18.975 27.1106 20.6649 24.5758 23.2765 24.0381C24.5055 23.8077 25.8113 24.0381 26.8866 24.7294C27.962 25.4207 28.7301 26.4961 28.9606 27.8019C29.0374 28.2628 28.8069 28.6468 28.3461 28.7236C27.8852 28.8005 27.5011 28.57 27.4243 28.1091C27.2707 27.2642 26.733 26.5729 26.0417 26.112C25.3504 25.6512 24.4287 25.4976 23.5837 25.6512C21.8939 26.0352 20.7417 27.7251 21.1258 29.4918C21.1258 29.799 20.8185 30.2599 20.3577 30.3367ZM41.1736 25.9584C41.6345 25.8816 41.8649 25.4207 41.7881 25.0367C41.404 23.27 42.5562 21.5802 44.2461 21.1961C45.091 21.0425 45.9359 21.1961 46.7041 21.657C47.3954 22.1178 47.933 22.886 48.0867 23.6541C48.1635 24.1149 48.6243 24.3454 49.0084 24.2686C49.4693 24.1918 49.6997 23.7309 49.6229 23.3468C49.3925 22.1178 48.6243 20.9657 47.549 20.2744C46.4736 19.5831 45.1678 19.3526 43.9388 19.5831C41.3272 20.1207 39.7142 22.6555 40.1751 25.2671C40.3287 25.728 40.7127 25.9584 41.1736 25.9584C41.0968 25.9584 41.1736 25.9584 41.1736 25.9584Z" fill="#292562"/>
<path d="M27.7316 34.4845C27.7316 34.7918 27.8084 35.0222 27.8852 35.3294C28.8069 39.6309 32.9548 41.3207 37.4098 40.399C41.8649 39.4773 45.0142 36.2512 44.0925 31.9497C44.0156 31.6425 43.9388 31.412 43.862 31.1048L27.7316 34.4845Z" fill="#231F20"/>
<path d="M9.52732 41.2439C6.30123 34.2541 0.309921 21.0425 7.22297 14.8975C11.678 10.9801 16.2099 11.1338 20.2809 11.9787C17.5925 12.7468 14.8273 14.0526 12.0621 16.2033C4.53456 22.1946 6.22442 32.3338 9.52732 41.2439ZM31.4954 9.44392C31.4954 9.44392 51.1592 10.2888 51.8505 5.14246C52.3114 1.91638 47.3955 0.917824 44.2462 1.53232C40.8665 2.14681 31.4954 9.44392 31.4954 9.44392Z" fill="#E6E7E8"/>
<path d="M22.662 35.9439C22.662 37.2497 21.1258 38.4019 19.2823 38.4019C17.362 38.4019 15.9026 37.3265 15.9026 35.9439C15.9026 34.6381 17.4388 33.486 19.2823 33.486C21.1258 33.486 22.662 34.5613 22.662 35.9439ZM50.3142 30.1062C50.8519 31.3352 52.6954 31.7193 54.3852 30.9512C56.0751 30.1831 57.0736 28.57 56.5359 27.341C55.9983 26.112 54.1548 25.728 52.4649 26.4961C50.7751 27.2642 49.7765 28.8773 50.3142 30.1062Z" fill="#F27175"/>
<path d="M37.3331 40.399C40.0983 39.7845 42.4027 38.3251 43.478 36.2512C42.5563 35.6367 41.1737 35.4063 39.7142 35.7135C38.4853 35.9439 37.4099 36.5584 36.7954 37.3265C35.8737 37.0193 34.7215 37.0193 33.5693 37.2497C32.1099 37.557 30.8809 38.2483 30.1128 39.17C31.9563 40.5526 34.6447 40.9367 37.3331 40.399Z" fill="#EC2227"/>
</svg>
