<svg id="Layer_1" xmlns="http://www.w3.org/2000/svg" viewBox="0 0 50 50"><style>.st0{fill:#fff}</style><path id="g12_2_" transform="scale(.1)" class="st0" d="M359.6 270.5c19.9-8 38.4-16.4 54.6-25-.2-20.2-3-34.5-8.7-46.1-5.8 14-14.2 34.3-16.7 40.2-.9 2.1-2.2 3.5-3.8 3.5-1.7 0-2.7-1-3.9-3.3-1.8-3.5-13-26.7-21.4-44.3l-.1 75zm-248.4-40.3V158c-14.5 19.5-23.8 46.6-25.9 72.2h25.9zm379.4-47.8c0 45.8-110.6 105.4-257.2 139.8-45.7 10.7-97.8 19.2-139.3 19.2C33.7 341.4 9 320 9 295.8c0-14.8 8.9-28.6 27.6-41.1 1-.7 2-1.2 2.9-1.2 1.1 0 1.8.7 1.8 1.6 0 .8-.4 1.5-1.5 2.3C25 269 17.6 281.1 17.6 293.6c0 17.1 18.7 35.7 75.4 35.7 5.5 0 11.6-.2 18.2-.6v-70.3H85.4c.9 12.5 3 23.3 7.3 38.6.5 1.7.8 3.1.8 4 0 2.4-1.1 3.8-4.7 5-4.2 1.6-7.9 2.9-11.7 4.1-1.5.5-2.8.8-4 .8-2.6 0-4.2-1.5-5.4-4.5-8.1-19-11-43.5-11-63.1 0-56.2 30.1-111.6 72.8-143.8 2.1-1.6 4.1-2.2 5.5-2.2 2.9 0 4.5 2.1 4.5 4.5v224.4c6.7-.7 13.7-1.6 20.8-2.6v-40.9c0-5.2 2-7 7.6-7h13.5c5.5 0 7.3 1.8 7.3 7v36.4c7.7-1.4 15.5-2.8 23.3-4.5v-38.5c0-7.2-1.9-10-7.4-13.3-5.6-3.3-16.5-9.8-24.2-14.5-13.7-8.3-20.1-15.7-20.1-33.2V96.7c0-8.7 1.8-14.3 9.8-19.4 15.4-9.8 42.7-19.1 56.1-19.1 8.2 0 11.8 3.9 11.8 10.4v134.1c0 5.2-1.7 7-7.3 7h-13.8c-5.5 0-7.3-1.8-7.3-7V96.9c0-4.1-.9-5.6-4.2-5.6-2.5 0-7.4 1.7-11.1 4-4.1 2.5-5 5.2-5 10.2v103.4c0 7.4 1.2 9.6 7.2 13.3 7.2 4.4 17.8 10.7 24.2 14.5 14.4 8.4 20.1 16.8 20.1 33.2v38.4c9.7-2.3 19.3-4.9 28.9-7.5V87c-3.4-.4-9.9-1.2-16.5-1.9-5.3-.6-6.1-2.8-6.1-6.5V64.3c0-4.2 2.2-6.5 6.8-6.5 17.3 0 48.5 6.3 61.5 11.4 5.2 2.1 6.3 4 6.3 7.8v16.2c0 3.4-1.8 5-4.4 5-1.1 0-2.4-.3-5-1.2-5.9-1.9-10.9-3.4-14.3-4.4v199.7c11.1-3.5 22.1-7.1 32.7-10.9V80.8c0-2.9 1.6-5 4.4-5 2.9 0 4.5 2.3 6.7 7.2 8.3 19.1 27.9 64.5 43.7 100.8 5.7-15.7 12.6-35 14-39.1 1.1-3 2.6-4.6 4.9-4.6 1.8 0 3.2.9 5.4 3.6 18 24.6 28.9 52.3 32 85.6 25.2-16.6 40.4-33.1 40.4-47.4 0-14.1-13.6-26.3-46.2-27.9-1.5-.1-2.4-.8-2.4-1.9 0-1 .9-1.9 2.5-1.9 36.8-.1 54.5 15.9 54.5 32.2zM211.9 338.9v58c0 4.1-1.7 5.7-4.9 5.7-3.5 0-9.7-1.3-13.2-3.4-4.1-2.4-5.2-4.9-5.2-10.3v-45.8c-9.6 1.7-19 3.1-28.4 4.4v51.1c0 10.6 3.2 16.4 13.3 22.2 13.2 7.5 40.9 14.2 54.7 14.2 8.4 0 12.5-4.7 12.5-11.8v-90.6c-9.6 2.2-19.2 4.4-28.8 6.3zm-100.7 13v18.8c0 6.7 1.4 9.3 5.3 12.5 4 3.3 8.8 7.3 14 11.5 1.8 1.4 3.6 2.1 5.1 2.1 2.3 0 3.9-1.6 3.9-4.8v-42.2c-9.6.9-19.2 1.6-28.3 2.1zm158.5-26.6v102.5c0 3.4 1.8 5.5 5.5 5.5 4 0 12.2-1.8 17.2-3.4 4.2-1.4 5.5-3.4 5.5-7.4V317.1c-9.1 2.8-18.5 5.5-28.2 8.2zm89.9-29c-9.2 3.6-18.9 7.1-29 10.5v103.3c0 3.7 1.7 5.5 4.9 5.5 1.2 0 2.4-.2 4-.9 3.4-1.4 12.5-6.4 16-8.9s4.1-4.4 4.1-9.6v-99.9zm82.7-40.2c-1.5 36.8-14.6 76.1-43 110.3-1.4 1.6-2.4 2.2-4 2.2s-2.9-.6-4.3-1.8c-2.6-2.1-8.9-7.1-10.9-8.7-1.8-1.5-2.8-2.9-2.8-4.7 0-1.7.9-3.4 2-5 18.9-27.3 29.1-50.3 33-75.2 8.1-3.8 21.5-11.4 30-17.1"/></svg>