<svg id="Layer_1" xmlns="http://www.w3.org/2000/svg" viewBox="0 0 30 30"><style>.st0{fill:none}</style><path class="st0" d="M7.8 9.7c.6.4.9 1 .9 2 0 .8-.2 1.4-.7 1.9-.4.4-1.1.6-1.9.6h-3V4.3h3.2c.9 0 1.7.2 2.2.7s.8 1.2.8 2.1c-.1 1.3-.6 2.1-1.5 2.6zM8 7.2C8 6 7.4 5.4 6.2 5.4H4.3V9h1.9C7.4 9 8 8.4 8 7.2zM6.1 13c1 0 1.4-.5 1.4-1.5s-.5-1.4-1.4-1.4H4.3V13h1.8zm7.5-8.7c1 0 1.7.3 2.2.8.5.5.8 1.3.8 2.3 0 1-.3 1.7-.8 2.2-.5.5-1.2.8-2.2.8h-1.8v3.1h-1.2V4.3h3zm-.1 4.9c.6 0 1.1-.2 1.4-.5s.4-.8.4-1.4-.1-1.1-.4-1.4-.8-.5-1.4-.5h-1.7v3.8h1.7zm8 2.3h-3.2l-.8 2.6h-1.2L19.1 5h1.6l2.8 9.1h-1.2l-.8-2.6zm-.3-1.1l-1.3-4.1-1.2 4.1h2.5zM4.3 18.1v3.5h3.8v1.1H4.3v3.4H3.1V17h5.4v1.1H4.3zm8.6.2h.6v1.1H13c-.6 0-1 .2-1.4.6s-.5.9-.5 1.5v3.8H9.9v-7.8h1.2v1.7c.4-.6 1-.9 1.8-.9zm2.8 3.8v1c0 .6.2 1.1.5 1.5.3.3.8.5 1.3.5.6 0 1-.1 1.3-.4s.4-.7.5-1.4h1.2c-.2 1.9-1.1 2.9-3 2.9-.9 0-1.6-.3-2.2-.8s-.7-1.4-.7-2.4v-2.4c0-.9.3-1.7.8-2.2s1.3-.8 2.2-.8c.9 0 1.6.3 2.2.8s.8 1.3.8 2.2v1.5h-4.9zm1.8-3.5c-.6 0-1 .2-1.3.5-.3.3-.5.8-.5 1.5v.5h3.6v-.6c0-.6-.2-1.1-.5-1.4s-.7-.5-1.3-.5zm5.4 3.3v.9c0 .6.2 1.1.5 1.5s.8.5 1.3.5c.6 0 1-.1 1.3-.4s.4-.7.5-1.4h1.2c-.2 1.9-1.1 2.9-3 2.9-.9 0-1.6-.3-2.2-.8s-.8-1.3-.8-2.2v-2.2c0-.9.3-1.7.8-2.2s1.3-.8 2.2-.8c.9 0 1.6.3 2.2.8s.8 1.3.8 2.2V22h-4.8zm1.8-3.3c-.6 0-1 .2-1.3.5s-.5.8-.5 1.5v.4h3.6v-.4c0-.6-.2-1.1-.5-1.4s-.8-.6-1.3-.6z"/></svg>