<svg id="Layer_1" xmlns="http://www.w3.org/2000/svg" viewBox="0 0 50 50"><style>.st0{fill-rule:evenodd;clip-rule:evenodd;fill:#fff}</style><path class="st0" d="M19.6 37.7v5.1c-.6.1-1.1.2-1.7.2C8.3 43 .6 35.2.6 25.6S8.3 8.3 17.9 8.3c.6 0 1.2 0 1.7.1v5.1c-.6-.1-1.1-.1-1.7-.1-6.7 0-12.2 5.5-12.2 12.2 0 6.7 5.5 12.2 12.2 12.2.6.1 1.1 0 1.7-.1zM35.7 23c1.2-5.5 6.1-9.6 11.9-9.6.6 0 1.2 0 1.7.1V8.4c-.6-.1-1.1-.1-1.7-.1-9.5 0-17.3 7.8-17.3 17.3S38.1 43 47.7 43c.6 0 1.2 0 1.7-.1v-5.1c-.6.1-1.1.1-1.7.1-5.8 0-10.7-4.1-11.9-9.6h10V23H35.7z"/></svg>