<svg width="250" height="116" viewBox="0 0 250 116" fill="none" xmlns="http://www.w3.org/2000/svg"><path d="M52.224 46.855C30.814 75.9 29.586 85.638 28.797 89.235c-.088.527-.088 1.844-.176 2.37 0 .526-.087 1.053-.263 1.58-.175.526-.351.965-.702 1.316-.263.35-.79.614-1.404.79-.702.263-1.404.175-2.106-.088a8.345 8.345 0 0 1-1.755-1.317c-.526-.526-.965-1.228-1.316-1.93-.35-.702-.614-1.404-.702-1.93-.526-1.93-.79-3.949-.35-5.88 1.403-6.843 15.793-28.34 22.374-36.413-2.895.439-5.879.965-8.862 1.843a47.056 47.056 0 0 0-8.511 3.158 38.413 38.413 0 0 0-7.459 4.738c-2.28 1.843-4.124 4.037-5.615 6.581-.702 1.229-1.316 2.545-1.755 3.949-.439 1.491-.702 2.895-.702 4.3 0 1.403.263 2.807.877 4.035.527 1.229 1.58 2.282 2.984 3.072.614.35 1.053.79 1.316 1.491.263.614.263 1.229.175 1.93-.087.615-.35 1.229-.79 1.843-.438.614-.964.965-1.579 1.229-1.228.438-2.544.35-3.948-.088-1.404-.439-2.633-1.053-3.598-1.755-1.58-1.14-2.808-2.545-3.597-4.3a14.986 14.986 0 0 1-1.316-5.44c-.088-2.018.175-3.948.702-5.879a19.533 19.533 0 0 1 2.369-5.352c1.053-1.667 2.193-3.246 3.597-4.738a46.043 46.043 0 0 1 4.3-4.036c21.936-17.11 55.19-16.584 60.543-15.97 2.106.264 4.563.79 6.318 1.667 1.755.878 3.159 2.194 4.212 3.861.438.614.526 1.228.526 1.843-.088.614-.263 1.14-.614 1.58a3.49 3.49 0 0 1-1.404 1.052 3.388 3.388 0 0 1-1.843.263c-3.773-.438-16.671-2.632-26.498-1.755zM250 102.485c0 1.229-.175 2.457-.526 3.686-.439 1.228-.79 2.193-1.229 2.983-1.579 2.544-3.773 4.299-6.493 5.44s-5.528 1.404-8.423.877c-2.019-.438-3.949-1.14-5.616-2.281-1.755-1.141-3.247-2.545-4.563-4.212-1.404-1.842-2.369-3.773-2.895-5.879-.527-2.105-.702-4.299-.615-6.493a28.6 28.6 0 0 1 1.053-6.58c.615-2.194 1.317-4.3 2.194-6.23.877-2.106 1.843-3.949 2.72-5.616.965-1.667 1.755-3.159 2.545-4.475.702-1.316 1.404-2.369 1.842-3.246.527-.878.702-1.58.702-2.019 0-.438-.351-.614-.965-.701a29.318 29.318 0 0 1-1.579-.264c-12.285 17.812-30.097 30.799-40.275 27.815-2.194-.614-3.861-1.755-5.089-3.159-1.229-1.403-2.194-2.807-2.72-4.475-.439-1.228-.614-2.544-.702-3.86-.614.79-1.141 1.491-1.58 2.018-.877 1.228-1.93 2.457-2.983 3.86a19.731 19.731 0 0 1-3.685 3.51 13.989 13.989 0 0 1-4.3 2.106c-1.491.439-3.158.263-4.825-.439-1.404-.614-2.545-1.403-3.335-2.369-.789-1.052-1.316-2.105-1.579-3.334-.263-1.228-.351-2.544-.088-3.86.176-1.404.527-2.633.965-3.861.614-1.668 1.404-3.247 2.369-4.826a47.429 47.429 0 0 1 2.896-4.388 71.695 71.695 0 0 1 3.071-4.123c1.053-1.317 2.018-2.808 2.896-4.3.526-.877.701-1.404.526-1.667-.175-.263-.614-.176-1.228.175-.702.351-1.492.878-2.633 1.668a42.613 42.613 0 0 0-3.597 2.983c-1.492 1.316-2.984 2.72-4.212 4.3-1.316 1.491-2.545 3.07-3.861 4.65-1.053 1.316-2.106 2.544-3.071 3.86-1.053 1.229-1.93 2.545-2.808 3.861a27.203 27.203 0 0 0-2.281 4.124c-.702 1.404-1.141 2.984-1.404 4.65a4.654 4.654 0 0 1-1.053 2.194c-.526.527-1.14.878-1.842 1.141-.702.175-1.404.263-2.106.088-.702-.088-1.316-.351-1.931-.79-.877-.614-1.404-1.404-1.667-2.545-.263-1.052-.614-2.28-.263-3.597.175-.965.439-1.843.702-2.808-3.949 5.002-9.301 9.564-15.531 9.828-2.106.087-3.948-.264-5.703-1.58-1.404-.965-2.369-2.194-2.896-3.685a13.635 13.635 0 0 1-.789-4.65c0-.527 0-1.054.087-1.58a46.24 46.24 0 0 1-5.44 5.528c-1.404 1.053-2.895 2.106-4.475 2.983-1.579.878-3.246 1.667-5.001 2.194-1.755.526-3.51.877-5.265.965a12.724 12.724 0 0 1-5.352-.877c-2.106-.703-3.861-1.755-5.09-3.16-1.228-1.403-2.193-2.807-2.72-4.474-.438-1.316-.614-2.633-.701-4.124-1.843 2.457-3.861 4.563-6.23 6.405-1.404 1.053-2.896 2.106-4.475 2.983-1.58.878-3.247 1.668-5.002 2.194s-3.51.877-5.264.965a12.727 12.727 0 0 1-5.353-.877c-2.106-.702-3.86-1.755-5.089-3.159-1.228-1.316-2.194-2.808-2.72-4.475a15.213 15.213 0 0 1-.702-5.352c.088-1.93.351-3.773.878-5.704a29.946 29.946 0 0 1 2.105-5.528c.878-1.755 1.755-3.422 2.808-4.826.965-1.403 2.106-2.72 3.334-4.124 1.229-1.316 2.545-2.632 3.949-3.685 1.404-1.14 2.983-2.018 4.563-2.808 1.58-.79 3.334-1.228 5.089-1.404 2.106-.263 4.124.088 6.054.966 1.93.877 3.51 2.281 4.563 4.124 1.053 1.755 1.492 3.597 1.404 5.528a14.985 14.985 0 0 1-1.316 5.44c-.79 1.754-1.93 3.334-3.335 4.826-1.403 1.491-2.807 2.632-4.387 3.51-2.544 1.491-5.001 2.28-7.546 2.456a20.245 20.245 0 0 1-7.546-.877c-.439 1.14-.614 2.193-.614 3.159 0 .965.35 1.754.965 2.28 1.228.878 2.545 1.317 4.036 1.317 1.492 0 3.071-.35 4.738-.965 1.668-.614 3.247-1.404 4.914-2.37 1.667-1.052 3.247-2.105 4.738-3.246 1.492-1.14 2.808-2.281 4.037-3.334.965-.965 2.369-2.281 3.158-3.159.351-.877.702-1.755 1.141-2.632.878-1.755 1.755-3.422 2.808-4.826.965-1.404 2.106-2.72 3.334-4.124 1.229-1.316 2.545-2.632 3.949-3.685 1.404-1.141 2.983-2.019 4.562-2.808 1.58-.79 3.335-1.229 5.09-1.404 2.105-.263 4.124.088 6.054.965 1.93.878 3.51 2.281 4.563 4.124 1.053 1.755 1.491 3.598 1.404 5.528a14.987 14.987 0 0 1-1.317 5.44c-.789 1.755-1.93 3.334-3.334 4.826-1.404 1.492-2.808 2.632-4.387 3.51-2.545 1.492-5.002 2.281-7.546 2.457a20.242 20.242 0 0 1-7.546-.878c-.439 1.14-.614 2.194-.614 3.159 0 .965.35 1.755.965 2.281 1.228.878 2.544 1.316 4.036 1.316 1.492 0 3.071-.35 4.738-.965 1.667-.614 3.247-1.404 4.914-2.369 1.667-1.053 3.246-2.106 4.738-3.246 1.492-1.141 2.808-2.282 4.036-3.335.966-.965 2.457-2.369 3.335-3.334.087-.263.175-.439.263-.702.526-1.228 1.053-2.544 1.667-3.948a96.368 96.368 0 0 1 2.106-4.475c.79-1.58 1.316-2.896 2.281-4.826-.702-.088-1.316-.263-1.93-.439a3.551 3.551 0 0 1-1.492-.877c-.614-.614-.702-1.404-.351-2.282.351-.877.965-1.667 1.843-2.369.877-.702 1.93-1.316 3.246-1.842a9.377 9.377 0 0 1 3.773-.527c.702-.965 1.755-2.457 2.545-3.422.79-.965 1.667-1.755 2.632-2.544.702-.615 1.667-1.053 2.72-1.404 1.053-.351 2.106-.527 3.071-.44.966.089 1.843.44 2.633.966.789.614 1.316 1.492 1.491 2.72.176 1.229 0 2.282-.526 3.334-.527 1.053-1.404 2.545-2.106 3.422.527.176 1.141.351 1.667.527.614.088 1.141.175 1.667.175.878 0 1.404.351 1.668.966a2.25 2.25 0 0 1 0 1.842c-.527.965-1.317 1.755-2.194 2.37-.878.526-1.93.965-2.983 1.316a20.343 20.343 0 0 1-3.335.526c-1.14.088-2.281.088-3.334 0-5.791 9.915-11.845 23.69-9.038 24.92 6.142 2.72 15.619-8.863 18.427-13.25 7.019-16.935 17.899-31.325 22.638-34.308 2.193-1.404 5.615-.877 5.966.439.878 3.597-7.546 10.617-16.847 31.412.088 0 1.58-2.106 2.369-3.071a40.532 40.532 0 0 1 2.457-2.983c.966-1.229 2.194-2.545 3.51-4.036 1.404-1.492 2.808-2.808 4.387-3.949 1.58-1.14 3.247-1.843 4.914-2.281 1.755-.44 3.51-.088 5.265.79a6.418 6.418 0 0 1 2.456 2.105c.615.878.966 1.755 1.229 2.808.263 1.053.263 2.018.175 3.159-.087 1.053-.351 2.106-.702 3.159-1.052 3.158-2.544 6.054-4.299 8.686-1.843 2.72-3.598 5.353-5.265 7.985-.877 1.316-1.316 2.281-1.404 2.896-.087.614 0 1.052.351 1.14.351.088.878 0 1.668-.35.701-.352 1.579-.966 2.456-1.756.966-.877 1.931-1.755 2.808-2.72.878-.965 1.755-1.93 2.633-2.807.965-1.053 2.018-2.106 2.983-3.16l.526-.526c.439-1.58 1.053-3.07 1.755-4.562.878-1.755 1.755-3.422 2.808-4.826.965-1.404 2.106-2.72 3.334-4.124 1.229-1.316 2.545-2.633 3.949-3.686 1.404-1.14 2.983-2.018 4.562-2.807 1.58-.79 3.335-1.229 5.09-1.404 2.105-.264 4.124.087 6.054.965 1.93.877 3.51 2.281 4.563 4.124 1.053 1.755 1.491 3.597 1.404 5.528a14.987 14.987 0 0 1-1.317 5.44c-.789 1.755-1.93 3.334-3.334 4.826-1.404 1.491-2.808 2.632-4.387 3.51-2.545 1.491-5.002 2.28-7.546 2.456a20.24 20.24 0 0 1-7.546-.877c-.439 1.14-.614 2.194-.614 3.159 0 .965.351 1.755.965 2.281 1.228.877 2.544 1.404 4.036 1.316 5.353-.439 18.075-4.913 25.534-22.725-.702-.878-1.141-2.106-1.141-3.686 0-1.053.263-2.018.877-3.07.527-.966 1.317-1.843 2.194-2.545.878-.702 1.843-1.229 2.896-1.492 1.053-.351 2.106-.351 3.158-.175 1.317.263 2.282.877 2.984 1.667.702.877 1.053 1.755 1.228 2.807 1.229.44 2.457.878 3.598 1.404 1.14.527 2.193 1.141 3.071 1.93.877.79 1.579 1.756 2.106 2.809.526 1.053.702 2.369.614 3.86a11.278 11.278 0 0 1-.878 3.685c-.438 1.229-1.053 2.37-1.667 3.598a35.924 35.924 0 0 1-2.106 3.422c-.702 1.14-1.404 2.281-2.106 3.334a203.595 203.595 0 0 0-3.685 6.318c-1.228 2.194-2.281 4.387-3.071 6.58-.79 2.194-1.141 4.3-1.141 6.318s.79 3.861 2.194 5.44c1.316 1.492 2.983 2.282 4.826 2.282 1.843.088 3.51-.702 4.914-2.194.614-.614 1.14-1.491 1.491-2.544a31.335 31.335 0 0 1 1.404-2.984c.527-.965 1.141-1.755 1.843-2.369.702-.702 1.667-.965 2.895-.877 1.404.175 2.37.702 2.896 1.58.088.438.351 1.491.351 2.719zm-57.122-28.429c1.58.176 3.072 0 4.475-.526 1.931-.702 3.598-1.93 5.002-3.598.351-.439.79-.965 1.228-1.755.527-.79.79-1.58.965-2.281.264-.877.176-1.316-.263-1.492-.438-.175-.965-.175-1.579 0-.878.264-1.667.702-2.457 1.316-.79.615-1.404 1.229-2.018 1.755a24.77 24.77 0 0 0-2.896 3.16c-.877 1.052-1.667 2.193-2.457 3.421zm-102.046-.175c1.58.175 3.071 0 4.475-.527 1.93-.702 3.597-1.93 5.001-3.597.351-.44.79-.966 1.229-1.755.526-.79.789-1.58.965-2.282.263-.877.175-1.316-.263-1.491-.439-.176-.966-.176-1.58 0-.877.263-1.667.702-2.457 1.316-.79.614-1.403 1.228-2.018 1.755a24.73 24.73 0 0 0-2.895 3.159c-.878 1.053-1.667 2.193-2.457 3.422zm-34.834 0c1.579.175 3.07 0 4.474-.527 1.93-.702 3.598-1.93 5.002-3.597.35-.44.79-.966 1.228-1.755.527-.79.79-1.58.965-2.282.264-.877.176-1.316-.263-1.491-.438-.176-.965-.176-1.58 0-.877.263-1.666.702-2.456 1.316-.79.614-1.404 1.228-2.018 1.755a24.724 24.724 0 0 0-2.896 3.159c-.877 1.053-1.667 2.193-2.456 3.422z" fill="#FFF200"/><path d="M109.96 77.566c-2.193 6.493-2.281 9.74-2.193 10.792a32.51 32.51 0 0 0 3.685-4.036c.088-.877 1.404-7.107 2.632-10.792-.175.087-3.334 3.334-4.124 4.036zM179.454 83.796v-1.492a25.66 25.66 0 0 1 .877-5.703c.088-.351.176-.614.263-.966l-.526.527c-.965 1.053-2.018 2.194-2.282 2.457-1.228 3.334-1.754 6.054-2.018 9.827.79-.877 3.071-3.86 3.686-4.65zM136.283 85.902c1.141-4.3 2.633-8.6 4.3-12.811-1.053 1.667-3.071 4.3-5.44 6.756-2.545 5.88-2.984 9.564-3.071 10.442 1.755-1.404 2.895-2.72 4.211-4.387zM219.991 64.141c-.087.263-1.316 2.808-1.403 3.071 1.491-.35 5.703-.263 7.546-.263-4.475-1.053-6.143-2.808-6.143-2.808zM120.402 59.49s5.089 1.404 8.599 1.668c0 0-7.897.087-9.828.965l1.229-2.632zM42.573 47.645s2.807-.614 7.809-.877c0 0-7.195 1.842-10.266 3.948l2.457-3.07zM75.564 77.127c-2.544 6.757-2.018 10.354-2.018 10.53 1.316-1.229 2.633-2.808 3.773-4.212.088-.878.176-4.036 1.843-9.828-.176.176-3.334 3.335-3.598 3.51z" fill="#999"/><path d="M133.388 18.865c-.527 3.334-2.018 6.23-4.475 8.687-3.159 3.07-7.02 4.65-11.582 4.65-4.563 0-8.424-1.58-11.583-4.65-3.158-3.071-4.738-6.932-4.738-11.407s1.58-8.336 4.738-11.407c3.159-3.07 7.02-4.65 11.583-4.65 4.562 0 8.423 1.58 11.582 4.65 2.457 2.457 3.948 5.353 4.475 8.687h-10.091c-1.053-2.194-3.422-3.773-6.054-3.773-3.685 0-6.756 2.983-6.756 6.756 0 3.685 2.983 6.756 6.756 6.756 2.808 0 5.177-1.667 6.142-4.036h10.003v-.263zm.965-18.163v8.511h7.283v22.2h8.774v-22.2h7.283V.702h-23.34zM98.641 16.057c0 4.563-1.58 8.336-4.738 11.407-3.159 3.071-7.02 4.65-11.582 4.65-4.563 0-8.424-1.579-11.582-4.65C67.579 24.393 66 20.532 66 16.057S67.58 7.721 70.74 4.65C73.897 1.58 77.758 0 82.32 0c4.562 0 8.423 1.58 11.582 4.65 3.159 3.071 4.738 6.845 4.738 11.407zm-9.652.088c0-3.685-2.983-6.756-6.756-6.756s-6.756 2.983-6.756 6.756c0 3.685 2.983 6.756 6.756 6.756s6.756-2.983 6.756-6.756zm102.222-.088c0 4.563-1.579 8.336-4.738 11.407-3.159 3.071-7.019 4.65-11.582 4.65-4.563 0-8.424-1.579-11.582-4.65-3.159-3.071-4.739-6.932-4.739-11.407s1.58-8.336 4.739-11.407C166.467 1.58 170.328 0 174.891 0c4.563 0 8.423 1.58 11.582 4.65 3.159 3.071 4.738 6.845 4.738 11.407zm-9.476 0c0-3.685-2.983-6.756-6.756-6.756-3.686 0-6.757 2.983-6.757 6.756 0 3.686 2.984 6.757 6.757 6.757 3.685-.088 6.756-3.072 6.756-6.757zm-117.665 0c0 4.387-1.404 7.985-4.3 10.968-2.895 2.984-6.405 4.387-10.617 4.387H34.851V.702h14.302c4.212 0 7.81 1.492 10.617 4.387 2.896 2.896 4.3 6.581 4.3 10.968zm-8.599-.175c0-3.685-2.983-6.757-6.756-6.757-3.686 0-6.757 2.984-6.757 6.757 0 3.685 2.984 6.756 6.757 6.756 3.685 0 6.756-2.983 6.756-6.756zm164.52 15.53l-9.739-.087c0 .087-7.897-9.652-7.897-9.652v9.652h-8.775V.615H207.181c6.142 0 11.143 5 11.143 11.143 0 4.212-2.369 7.897-5.791 9.74 1.843 2.807 7.458 9.914 7.458 9.914zm-14.39-15.793a4.119 4.119 0 0 0 4.124-4.124 4.119 4.119 0 0 0-4.124-4.124 4.12 4.12 0 0 0-4.124 4.123 4.12 4.12 0 0 0 4.124 4.124z" fill="#fff"/></svg>