<svg id="Layer_1" xmlns="http://www.w3.org/2000/svg" viewBox="0 0 30 30"><style>.st0{fill:#fff}</style><path class="st0" d="M15 1.2c1 0 1.8.8 1.8 1.8S16 4.7 15 4.7s-1.8-.8-1.8-1.7.8-1.8 1.8-1.8m0-.9c-1.5 0-2.7 1.2-2.7 2.7s1.2 2.7 2.7 2.7c1.5 0 2.7-1.2 2.7-2.7S16.5.3 15 .3zm6 2.5c1 0 1.8.8 1.8 1.8S22 6.3 21 6.3s-1.8-.8-1.8-1.8.9-1.7 1.8-1.7m0-.9c-1.5 0-2.7 1.2-2.7 2.7s1.2 2.7 2.7 2.7 2.7-1.2 2.7-2.7-1.2-2.7-2.7-2.7zm4.4 5.3c1 0 1.8.8 1.8 1.8s-.8 1.8-1.8 1.8-1.8-.8-1.8-1.8.8-1.8 1.8-1.8m0-.9c-1.5 0-2.7 1.2-2.7 2.7s1.2 2.7 2.7 2.7c1.5 0 2.7-1.2 2.7-2.7s-1.2-2.7-2.7-2.7zm1.5 6.9c1 0 1.8.8 1.8 1.8s-.8 1.8-1.8 1.8-1.8-.8-1.8-1.8.9-1.8 1.8-1.8m0-.9c-1.5 0-2.7 1.2-2.7 2.7s1.2 2.7 2.7 2.7c1.5 0 2.7-1.2 2.7-2.7s-1.2-2.7-2.7-2.7zm-1.5 6.9c1 0 1.8.8 1.8 1.8s-.8 1.8-1.8 1.8-1.7-.8-1.7-1.8.8-1.8 1.7-1.8m0-.9c-1.5 0-2.7 1.2-2.7 2.7 0 1.5 1.2 2.7 2.7 2.7s2.7-1.2 2.7-2.7c0-1.5-1.2-2.7-2.7-2.7zM21 23.6c1 0 1.8.8 1.8 1.8s-.8 1.8-1.8 1.8-1.8-.8-1.8-1.8c.1-1 .9-1.8 1.8-1.8m0-.9c-1.5 0-2.7 1.2-2.7 2.7S19.6 28 21 28s2.7-1.2 2.7-2.7-1.2-2.6-2.7-2.6zm-6 2.5c1 0 1.8.8 1.8 1.8s-.8 1.8-1.8 1.8-1.8-.8-1.8-1.8c.1-1 .9-1.8 1.8-1.8m0-.9c-1.5 0-2.7 1.2-2.7 2.7s1.2 2.7 2.7 2.7 2.7-1.2 2.7-2.7-1.2-2.7-2.7-2.7zm-6-.7c1 0 1.8.8 1.8 1.8s-.9 1.7-1.8 1.7-1.8-.8-1.8-1.8.8-1.7 1.8-1.7m0-.9c-1.5 0-2.7 1.2-2.7 2.7S7.5 28 9 28s2.7-1.2 2.7-2.7-1.3-2.6-2.7-2.6zm-4.4-3.5c1 0 1.8.8 1.8 1.8s-.8 1.8-1.8 1.8-1.7-.9-1.7-1.8c0-1 .8-1.8 1.7-1.8m0-.9C3.2 18.3 2 19.5 2 21s1.2 2.7 2.7 2.7 2.7-1.2 2.7-2.7-1.3-2.7-2.8-2.7zm-1.5-5.1c1 0 1.8.8 1.8 1.8s-.8 1.8-1.8 1.8-1.8-.9-1.8-1.8.8-1.8 1.8-1.8m0-.9C1.6 12.3.4 13.5.4 15s1.2 2.7 2.7 2.7 2.7-1.2 2.7-2.7-1.2-2.7-2.7-2.7zm1.5-5c1 0 1.8.8 1.8 1.8s-.8 1.8-1.8 1.8S2.8 10 2.8 9s.8-1.7 1.8-1.7m0-.9C3.2 6.4 2 7.6 2 9s1.2 2.7 2.7 2.7S7.3 10.5 7.3 9 6.1 6.4 4.6 6.4zM9 2.8c1 0 1.8.8 1.8 1.8S10 6.4 9 6.4s-1.8-.8-1.8-1.8S8 2.8 9 2.8M9 2C7.5 2 6.4 3.2 6.4 4.6S7.5 7.3 9 7.3s2.7-1.2 2.7-2.7S10.5 2 9 2zm6 5.1c1 0 1.8.8 1.8 1.8s-.8 1.8-1.8 1.8-1.8-.8-1.8-1.8.8-1.8 1.8-1.8m0-.8c-1.5 0-2.7 1.2-2.7 2.7s1.2 2.7 2.7 2.7c1.5 0 2.7-1.2 2.7-2.7S16.5 6.3 15 6.3zm5.2 3.9c1 0 1.8.8 1.8 1.8s-.8 1.8-1.8 1.8-1.8-.8-1.8-1.8.8-1.8 1.8-1.8m0-.9c-1.5 0-2.7 1.2-2.7 2.7s1.2 2.7 2.7 2.7c1.5 0 2.7-1.2 2.7-2.7s-1.2-2.7-2.7-2.7zm.1 6.9c1 0 1.8.8 1.8 1.8s-.8 1.8-1.8 1.8-1.8-.8-1.8-1.8.8-1.8 1.8-1.8m0-.9c-1.5 0-2.7 1.2-2.7 2.7s1.2 2.7 2.7 2.7c1.5 0 2.7-1.2 2.7-2.7s-1.2-2.7-2.7-2.7zM15 19.1c1 0 1.8.8 1.8 1.8s-.8 1.8-1.8 1.8-1.8-.8-1.8-1.8.8-1.8 1.8-1.8m0-.9c-1.5 0-2.7 1.2-2.7 2.7s1.2 2.7 2.7 2.7c1.5 0 2.7-1.2 2.7-2.7s-1.2-2.7-2.7-2.7zm-5.2-2.1c1 0 1.8.8 1.8 1.8s-.8 1.8-1.8 1.8S8 18.9 8 17.9c.1-1 .9-1.8 1.8-1.8m0-.8c-1.5 0-2.7 1.2-2.7 2.7 0 1.5 1.2 2.7 2.7 2.7s2.7-1.2 2.7-2.7c0-1.5-1.2-2.7-2.7-2.7zm0-5.2c1 0 1.8.8 1.8 1.8s-.8 1.8-1.8 1.8S8 12.9 8 11.9s.9-1.8 1.8-1.8m0-.8c-1.5 0-2.7 1.2-2.7 2.7s1.2 2.7 2.7 2.7 2.7-1.2 2.7-2.7-1.2-2.7-2.7-2.7z"/></svg>