<svg width="50" height="50" viewBox="0 0 50 50" fill="none" xmlns="http://www.w3.org/2000/svg"><circle cx="25" cy="25" r="25" fill="#ED820E"/><path d="M28.611 37.182h-9.63c-.24 0-.481-.243-.481-.485s.24-.485.482-.485h9.148v-.848c0-.849.12-1.576.24-2.425.241-1.09 1.204-1.818 2.408-1.818h1.083c1.083 0 2.046-.97 2.046-2.06v-4.122c0-.242.241-.485.482-.485h2.528l-1.686-5.09v-.122c-.12-6.181-5.055-11.272-11.194-11.272-6.018 0-10.954 5.09-10.954 11.151 0 3.637 2.287 7.273 4.815 10.546 1.084 1.454 1.565 4.12 1.565 4.242 0 .242-.12.606-.482.606-.24 0-.601-.121-.601-.364 0 0-.482-2.545-1.445-3.757C14.407 26.879 12 23.12 12 19.12 12 12.455 17.417 7 24.037 7c6.62 0 12.037 5.454 12.037 12.121L38 24.818c0 .121 0 .364-.12.485s-.241.242-.482.242H34.87v3.394c0 1.697-1.444 3.152-3.13 3.152h-1.083c-.601 0-1.203.485-1.324 1.09-.12.728-.24 1.455-.24 2.183v1.454c0 .121-.241.364-.482.364zm-2.648-6.546c-.24 0-.482-.242-.482-.485 0-3.515 0-7.151 1.926-9.818h-6.74c1.926 2.667 1.926 6.303 1.926 9.819 0 .242-.241.484-.482.484-.24 0-.481-.242-.481-.485 0-3.878 0-7.515-2.408-9.939-.12-.121-.24-.363-.12-.606.12-.242.24-.364.481-.364h9.028c.24 0 .361.122.482.364.12.242 0 .485-.12.606-2.408 2.424-2.408 6.06-2.408 9.94 0 .242-.24.484-.602.484zM25.361 43h-3.25c-2.046 0-3.731-1.697-3.731-3.758v-.484h1.083v.484c0 1.455 1.204 2.667 2.648 2.667h3.25c1.445 0 2.648-1.212 2.648-2.667v-.484h1.084v.484c0 2.061-1.686 3.758-3.732 3.758z" fill="#fff"/></svg>