<svg width="50" height="50" viewBox="0 0 50 50" fill="none" xmlns="http://www.w3.org/2000/svg"><circle cx="25" cy="25" r="25" fill="#41B60E"/><path d="M24.286 8.28c1.272 0 2.29 1.01 2.29 2.274 0 1.263-1.018 2.148-2.29 2.148s-2.29-1.011-2.29-2.148c0-1.137 1.018-2.274 2.29-2.274zm0-1.137a3.409 3.409 0 0 0-3.435 3.41 3.409 3.409 0 0 0 3.435 3.412 3.409 3.409 0 0 0 3.434-3.411 3.409 3.409 0 0 0-3.434-3.411zm7.632 3.158c1.272 0 2.29 1.01 2.29 2.274s-1.018 2.148-2.29 2.148a2.272 2.272 0 0 1-2.29-2.274c0-1.263 1.145-2.148 2.29-2.148zm0-1.137a3.409 3.409 0 0 0-3.435 3.411 3.409 3.409 0 0 0 3.435 3.411 3.409 3.409 0 0 0 3.434-3.41 3.409 3.409 0 0 0-3.434-3.412zm5.597 6.696c1.272 0 2.29 1.01 2.29 2.274a2.272 2.272 0 0 1-2.29 2.274 2.272 2.272 0 0 1-2.29-2.274 2.272 2.272 0 0 1 2.29-2.274zm0-1.137a3.409 3.409 0 0 0-3.435 3.411 3.409 3.409 0 0 0 3.435 3.411 3.409 3.409 0 0 0 3.434-3.41 3.409 3.409 0 0 0-3.434-3.412zm1.908 8.717c1.272 0 2.29 1.01 2.29 2.274a2.272 2.272 0 0 1-2.29 2.274 2.272 2.272 0 0 1-2.29-2.274c0-1.263 1.145-2.274 2.29-2.274zm0-1.137a3.409 3.409 0 0 0-3.435 3.411 3.409 3.409 0 0 0 3.435 3.411 3.409 3.409 0 0 0 3.434-3.41 3.409 3.409 0 0 0-3.434-3.412zm-1.908 8.717c1.272 0 2.29 1.011 2.29 2.274a2.272 2.272 0 0 1-2.29 2.275c-1.272 0-2.163-1.011-2.163-2.275 0-1.263 1.018-2.274 2.163-2.274zm0-1.137a3.409 3.409 0 0 0-3.435 3.412 3.409 3.409 0 0 0 3.435 3.41 3.409 3.409 0 0 0 3.434-3.41 3.409 3.409 0 0 0-3.434-3.412zm-5.597 6.696c1.272 0 2.29 1.01 2.29 2.274a2.272 2.272 0 0 1-2.29 2.274 2.272 2.272 0 0 1-2.29-2.274c.127-1.263 1.145-2.274 2.29-2.274zm0-1.137a3.409 3.409 0 0 0-3.435 3.411c0 1.895 1.654 3.285 3.435 3.285 1.78 0 3.434-1.516 3.434-3.411s-1.526-3.285-3.434-3.285zm-7.632 3.159c1.272 0 2.29 1.01 2.29 2.274a2.272 2.272 0 0 1-2.29 2.274 2.272 2.272 0 0 1-2.29-2.274c.127-1.264 1.145-2.274 2.29-2.274zm0-1.137a3.409 3.409 0 0 0-3.435 3.41 3.409 3.409 0 0 0 3.435 3.412 3.409 3.409 0 0 0 3.434-3.411 3.409 3.409 0 0 0-3.434-3.411zm-7.632-.885c1.272 0 2.29 1.01 2.29 2.274s-1.146 2.148-2.29 2.148c-1.145 0-2.29-1.01-2.29-2.274 0-1.263 1.018-2.148 2.29-2.148zm0-1.137a3.409 3.409 0 0 0-3.435 3.411c0 1.895 1.527 3.285 3.435 3.285a3.409 3.409 0 0 0 3.434-3.411c0-1.895-1.654-3.285-3.434-3.285zm-5.597-4.422c1.272 0 2.29 1.011 2.29 2.274a2.272 2.272 0 0 1-2.29 2.275c-1.272 0-2.163-1.138-2.163-2.275 0-1.263 1.018-2.274 2.163-2.274zm0-1.137c-1.781 0-3.307 1.516-3.307 3.412a3.409 3.409 0 0 0 3.434 3.41 3.409 3.409 0 0 0 3.434-3.41c0-1.896-1.653-3.412-3.561-3.412zM9.149 23.44c1.272 0 2.29 1.01 2.29 2.274a2.272 2.272 0 0 1-2.29 2.274c-1.272 0-2.29-1.137-2.29-2.274s1.018-2.274 2.29-2.274zm0-1.137a3.409 3.409 0 0 0-3.435 3.411 3.409 3.409 0 0 0 3.435 3.411 3.409 3.409 0 0 0 3.434-3.41 3.409 3.409 0 0 0-3.434-3.412zm1.908-6.317c1.272 0 2.29 1.011 2.29 2.274a2.272 2.272 0 0 1-2.29 2.274c-1.272 0-2.29-1.136-2.29-2.4 0-1.263 1.018-2.148 2.29-2.148zm0-1.137c-1.781 0-3.307 1.516-3.307 3.285 0 1.769 1.526 3.411 3.434 3.411 1.908 0 3.307-1.516 3.307-3.41 0-1.896-1.526-3.286-3.434-3.286zm5.597-4.548c1.272 0 2.29 1.01 2.29 2.274a2.272 2.272 0 0 1-2.29 2.274 2.272 2.272 0 0 1-2.29-2.274 2.272 2.272 0 0 1 2.29-2.274zm0-1.01a3.273 3.273 0 0 0-3.308 3.284c0 1.769 1.4 3.411 3.308 3.411a3.409 3.409 0 0 0 3.434-3.41c0-1.896-1.526-3.285-3.434-3.285zm7.632 6.443c1.272 0 2.29 1.01 2.29 2.274a2.272 2.272 0 0 1-2.29 2.274 2.272 2.272 0 0 1-2.29-2.274 2.272 2.272 0 0 1 2.29-2.274zm0-1.011a3.409 3.409 0 0 0-3.435 3.411 3.409 3.409 0 0 0 3.435 3.411 3.409 3.409 0 0 0 3.434-3.41 3.409 3.409 0 0 0-3.434-3.412zM30.9 19.65c1.272 0 2.29 1.01 2.29 2.274a2.272 2.272 0 0 1-2.29 2.274 2.272 2.272 0 0 1-2.29-2.274 2.272 2.272 0 0 1 2.29-2.274zm0-1.137a3.409 3.409 0 0 0-3.434 3.411 3.409 3.409 0 0 0 3.434 3.411 3.409 3.409 0 0 0 3.435-3.41 3.409 3.409 0 0 0-3.435-3.412zm.127 8.717c1.272 0 2.29 1.011 2.29 2.274a2.272 2.272 0 0 1-2.29 2.274 2.272 2.272 0 0 1-2.29-2.274 2.272 2.272 0 0 1 2.29-2.274zm0-1.137a3.409 3.409 0 0 0-3.434 3.411 3.409 3.409 0 0 0 3.434 3.411 3.409 3.409 0 0 0 3.435-3.41 3.409 3.409 0 0 0-3.435-3.412zm-6.741 4.801c1.272 0 2.29 1.01 2.29 2.274a2.272 2.272 0 0 1-2.29 2.274 2.272 2.272 0 0 1-2.29-2.274 2.272 2.272 0 0 1 2.29-2.274zm0-1.137a3.409 3.409 0 0 0-3.435 3.411 3.409 3.409 0 0 0 3.435 3.411 3.409 3.409 0 0 0 3.434-3.41 3.409 3.409 0 0 0-3.434-3.412zm-6.615-2.653c1.272 0 2.29 1.01 2.29 2.274a2.272 2.272 0 0 1-2.29 2.274 2.272 2.272 0 0 1-2.29-2.274c.128-1.263 1.145-2.274 2.29-2.274zm0-1.01a3.409 3.409 0 0 0-3.434 3.41 3.409 3.409 0 0 0 3.434 3.411 3.409 3.409 0 0 0 3.435-3.41 3.409 3.409 0 0 0-3.435-3.412zm0-6.57c1.272 0 2.29 1.01 2.29 2.274a2.272 2.272 0 0 1-2.29 2.274 2.272 2.272 0 0 1-2.29-2.274c0-1.263 1.145-2.274 2.29-2.274zm0-1.01a3.409 3.409 0 0 0-3.434 3.41 3.409 3.409 0 0 0 3.434 3.411 3.409 3.409 0 0 0 3.435-3.41 3.409 3.409 0 0 0-3.435-3.412z" fill="#fff"/></svg>