<svg width="50" height="50" viewBox="0 0 50 50" fill="none" xmlns="http://www.w3.org/2000/svg"><circle cx="25" cy="25" r="25" fill="#02CCE0"/><path d="M18.043 19.198c.662.47.993 1.174.993 2.348 0 .94-.22 1.644-.772 2.23-.442.47-1.214.705-2.097.705h-3.31V12.857h3.53c.994 0 1.877.235 2.428.822.552.587.883 1.409.883 2.466-.11 1.526-.662 2.465-1.655 3.053zm.22-2.936c0-1.409-.661-2.113-1.985-2.113H14.18v4.227h2.097c1.324 0 1.986-.705 1.986-2.114zm-2.096 6.81c1.104 0 1.545-.587 1.545-1.76 0-1.175-.552-1.645-1.545-1.645h-1.986v3.405h1.986zm8.275-10.215c1.104 0 1.876.352 2.428.94.552.586.883 1.526.883 2.7 0 1.174-.331 1.996-.883 2.583-.552.587-1.324.94-2.428.94h-1.986v3.64h-1.324V12.857h3.31zm-.11 5.753c.662 0 1.214-.234 1.545-.587.33-.352.441-.939.441-1.643 0-.705-.11-1.292-.441-1.644-.331-.353-.883-.587-1.545-.587h-1.876v4.461h1.876zm8.827 2.701h-3.53l-.883 3.053h-1.324l3.089-10.685h1.765l3.09 10.685h-1.324l-.883-3.053zm-.33-1.291l-1.435-4.814-1.324 4.814h2.758zM14.18 29.06v4.11h4.193v1.292h-4.193v3.992h-1.324V27.769h5.958v1.292h-4.634zm9.49.236h.661v1.291h-.552c-.662 0-1.103.235-1.544.705-.442.47-.552 1.056-.552 1.76v4.463H20.36v-9.159h1.324v1.996c.441-.704 1.104-1.056 1.986-1.056zm3.089 4.461v1.175c0 .704.22 1.291.551 1.76.331.353.883.588 1.435.588.662 0 1.103-.118 1.434-.47.331-.352.441-.822.552-1.644h1.324c-.22 2.231-1.214 3.405-3.31 3.405-.993 0-1.766-.352-2.428-.939-.662-.587-.772-1.644-.772-2.818v-2.818c0-1.057.33-1.996.883-2.583.551-.587 1.434-.94 2.427-.94.993 0 1.765.353 2.427.94.662.587.883 1.526.883 2.583v1.761H26.76zm1.986-4.11c-.662 0-1.104.236-1.435.588-.33.352-.551.94-.551 1.761v.587h3.972v-.704c0-.705-.221-1.292-.552-1.644-.331-.352-.772-.587-1.434-.587zm5.958 3.876v1.056c0 .705.22 1.292.551 1.761.331.47.883.588 1.435.588.662 0 1.103-.118 1.434-.47.331-.352.442-.822.552-1.644H40c-.22 2.231-1.214 3.405-3.31 3.405-.993 0-1.765-.352-2.427-.94-.663-.586-.883-1.526-.883-2.582v-2.584c0-1.056.33-1.996.883-2.583.551-.587 1.434-.939 2.427-.939.993 0 1.765.352 2.427.94.662.586.883 1.526.883 2.583v1.526h-5.296v-.117zm1.986-3.875c-.662 0-1.103.235-1.434.587-.331.352-.552.94-.552 1.761v.47h3.972v-.47c0-.704-.22-1.291-.552-1.644-.33-.352-.882-.704-1.434-.704z" fill="#fff"/></svg>