<svg id="Layer_1" xmlns="http://www.w3.org/2000/svg" viewBox="0 0 50 50"><style>.st0{fill:#fff}</style><path class="st0" d="M25 17.1c4.4 0 7.9 3.5 7.9 7.9s-3.5 7.9-7.9 7.9-7.9-3.5-7.9-7.9 3.5-7.9 7.9-7.9zM34.6 0H15.4C6.9 0 0 6.9 0 15.4v19.2C0 43.1 6.9 50 15.4 50h19.2C43.1 50 50 43.1 50 34.6V15.4C50 6.9 43.1 0 34.6 0zM25 38.2c-7.3 0-13.2-5.9-13.2-13.2S17.7 11.8 25 11.8 38.2 17.7 38.2 25 32.3 38.2 25 38.2zm13.7-24.8c-1.8 0-3.3-1.5-3.3-3.3s1.5-3.4 3.3-3.4S42 8.2 42 10.1c.1 1.8-1.4 3.3-3.3 3.3z"/></svg>