<svg width="35" height="35" viewBox="0 0 35 35" fill="none" xmlns="http://www.w3.org/2000/svg"><path d="M17.5 11.97c3.08 0 5.53 2.45 5.53 5.53s-2.45 5.53-5.53 5.53-5.53-2.45-5.53-5.53 2.45-5.53 5.53-5.53zM24.22 0H10.78C4.83 0 0 4.83 0 10.78v13.44C0 30.17 4.83 35 10.78 35h13.44C30.17 35 35 30.17 35 24.22V10.78C35 4.83 30.17 0 24.22 0zM17.5 26.74c-5.11 0-9.24-4.13-9.24-9.24s4.13-9.24 9.24-9.24 9.24 4.13 9.24 9.24-4.13 9.24-9.24 9.24zm9.59-17.36a2.33 2.33 0 0 1-2.31-2.31c0-1.26 1.05-2.38 2.31-2.38s2.31 1.05 2.31 2.38c.07 1.26-.98 2.31-2.31 2.31z" fill="#fff"/></svg>