<svg width="410" height="2316" viewBox="0 0 410 2316" fill="none" xmlns="http://www.w3.org/2000/svg"><path d="M3.467 2250.33c10.067-2.13 14.934 6.73 20 7.87 5.801 1.26 15.135-6.27 23.935 1.6 7.934 7.06-.066 23-3.267 29.87-3.2 7-15.334 28.73-22.4 25.8-5.268-2.2-.4-15.27-5.934-16.6-5.667-1.34-6.8 13.2-12.668 12.66-1.133-.13-2.2-.73-3.133-1.8V2252c1.067-.8 2.2-1.4 3.467-1.67z" fill="#fff"/><path d="M33.135 2276.33c.333.07.667-.2.733-.53.467-2.27-1-4.47-3.267-4.94-1.066-.2-2.2 0-3.133.6-.933.6-1.6 1.54-1.8 2.67-.067.4.133.73.533.8.4.07.734-.13.8-.53.134-.74.6-1.34 1.2-1.74.6-.4 1.4-.53 2.134-.4 1.466.34 2.466 1.8 2.133 3.34 0 .26.267.66.667.73zm-18.068-3.8c-.4-.07-.6-.47-.533-.8.333-1.53-.667-3-2.133-3.33-.734-.14-1.467 0-2.134.4-.6.4-1.067 1.06-1.2 1.73-.067.4-.467.6-.8.53-.4-.06-.6-.46-.533-.8.2-1.06.866-2.06 1.8-2.66.933-.6 2.066-.8 3.133-.6 2.267.46 3.667 2.66 3.267 4.93-.133.4-.467.6-.867.6.067 0 0 0 0 0z" fill="#292562"/><path d="M26.735 2279.93c0 .27-.067.47-.134.73-.8 3.74-4.4 5.2-8.267 4.4-3.867-.8-6.6-3.6-5.8-7.33.067-.27.133-.47.2-.73l14 2.93z" fill="#231F20"/><path d="M42.535 2285.8c2.8-6.07 8-17.54 2-22.87-3.866-3.4-7.8-3.27-11.333-2.53 2.333.66 4.733 1.8 7.133 3.66 6.534 5.2 5.067 14 2.2 21.74zm-19.067-27.6s-17.068.73-17.668-3.74c-.4-2.8 3.867-3.66 6.6-3.13 2.934.53 11.068 6.87 11.068 6.87z" fill="#E6E7E8"/><path d="M31.135 2281.2c0 1.13 1.333 2.13 2.933 2.13 1.667 0 2.934-.93 2.934-2.13 0-1.14-1.334-2.14-2.934-2.14s-2.933.94-2.933 2.14zm-24.001-5.07c-.467 1.07-2.067 1.4-3.534.73-1.467-.66-2.333-2.06-1.867-3.13.467-1.07 2.067-1.4 3.534-.73 1.467.66 2.333 2.06 1.867 3.13z" fill="#F27175"/><path d="M18.4 2285.06c-2.4-.53-4.4-1.8-5.333-3.6.8-.53 2-.73 3.267-.46 1.067.2 2 .73 2.534 1.4.8-.27 1.8-.27 2.8-.07 1.266.27 2.333.87 3 1.67-1.6 1.2-3.934 1.53-6.267 1.06z" fill="#EC2227"/><circle cx="389.5" cy="1692.5" r="37.5" fill="#FF8500"/><circle cx="35.5" cy="1374.5" r="275.5" fill="#05BCCC"/><circle cx="60" cy="50" r="20" fill="#05BCCC"/><circle cx="412" cy="-12" r="236" fill="#05BCCC"/><path d="M35.5 1495.21l7.2 13.03 7.3 12.93H21l7.2-12.93 7.3-13.03zM35.5 1470.69l2.8 5.17 2.9 5.17H29.8l2.8-5.17 2.9-5.17zM379.5 2279.69l7.2 13.03 7.3 12.94h-29l7.2-12.94 7.3-13.03zM379.5 2255.17l2.8 5.17 2.9 5.18h-11.4l2.8-5.18 2.9-5.17z" fill="#FFDE17"/><path d="M406.006 271.643c-11.599-2.458-17.206 7.758-23.044 9.064-6.682 1.46-17.436-7.22-27.575 1.844-9.141 8.142.077 26.5 3.764 34.411 3.687 8.065 17.666 33.106 25.808 29.726 6.069-2.534.461-17.59 6.837-19.126 6.529-1.536 7.834 15.209 14.594 14.594 1.306-.153 2.535-.845 3.61-2.074v-66.518c-1.229-.922-2.535-1.613-3.994-1.921z" fill="#fff"/><path d="M371.825 301.6c-.384.077-.769-.231-.845-.615-.538-2.611 1.152-5.146 3.763-5.684 1.229-.23 2.535 0 3.611.692 1.075.691 1.843 1.766 2.074 3.072.076.461-.154.845-.615.922-.461.077-.845-.154-.922-.615-.153-.845-.691-1.536-1.382-1.997-.692-.461-1.613-.614-2.458-.461-1.69.384-2.842 2.074-2.458 3.841 0 .307-.308.768-.768.845zm20.816-4.378c.46-.077.691-.538.614-.922-.384-1.767.768-3.457 2.458-3.841a3.49 3.49 0 0 1 2.458.461c.691.461 1.229 1.229 1.383 1.997.076.461.537.692.921.615.461-.077.692-.538.615-.922a4.765 4.765 0 0 0-2.074-3.072c-1.075-.692-2.381-.922-3.61-.692-2.612.538-4.225 3.073-3.764 5.684.154.461.538.692.999.692-.077 0 0 0 0 0z" fill="#292562"/><path d="M379.199 305.748c0 .307.076.537.153.845.922 4.301 5.07 5.991 9.525 5.069 4.455-.922 7.604-4.148 6.682-8.449-.076-.307-.153-.538-.23-.845l-16.13 3.38z" fill="#231F20"/><path d="M360.994 312.507c-3.226-6.99-9.217-20.201-2.304-26.346 4.455-3.918 8.987-3.764 13.058-2.919-2.689.768-5.454 2.074-8.219 4.225-7.528 5.991-5.838 16.13-2.535 25.04zm21.968-31.8s19.664.845 20.355-4.301c.461-3.226-4.455-4.225-7.604-3.61-3.38.614-12.751 7.911-12.751 7.911z" fill="#E6E7E8"/><path d="M374.129 307.207c0 1.306-1.536 2.458-3.38 2.458-1.92 0-3.379-1.075-3.379-2.458 0-1.306 1.536-2.458 3.379-2.458 1.844 0 3.38 1.076 3.38 2.458zm27.652-5.838c.538 1.229 2.381 1.613 4.071.845s2.689-2.381 2.151-3.61c-.538-1.229-2.381-1.613-4.071-.845s-2.689 2.381-2.151 3.61z" fill="#F27175"/><path d="M388.8 311.662c2.765-.614 5.07-2.074 6.145-4.148-.922-.614-2.304-.845-3.764-.537-1.229.23-2.304.845-2.919 1.613-.921-.308-2.074-.308-3.226-.077-1.459.307-2.688.998-3.456 1.92 1.843 1.383 4.532 1.767 7.22 1.229z" fill="#EC2227"/></svg>