<svg id="Layer_1" xmlns="http://www.w3.org/2000/svg" viewBox="0 0 30 30"><style>.st0{fill:none}</style><path class="st0" d="M18.8 25.1h-8c-.2 0-.4-.2-.4-.4s.2-.4.4-.4h7.6v-.7c0-.7.1-1.3.2-2 .2-.9 1-1.5 2-1.5h.9c.9 0 1.7-.8 1.7-1.7V15c0-.2.2-.4.4-.4h2.1l-1.4-4.2v-.1C24.2 5.2 20.1 1 15 1c-5 0-9.1 4.2-9.1 9.2 0 3 1.9 6 4 8.7.9 1.2 1.3 3.4 1.3 3.5 0 .2-.1.5-.4.5-.2 0-.5-.1-.5-.3 0 0-.4-2.1-1.2-3.1C7 16.6 5 13.5 5 10.2 5 4.7 9.5.2 15 .2s10 4.5 10 10l1.6 4.7c0 .1 0 .3-.1.4-.1.1-.2.2-.4.2H24v2.8c0 1.4-1.2 2.6-2.6 2.6h-.9c-.5 0-1 .4-1.1.9-.1.6-.2 1.2-.2 1.8v1.2c0 .1-.2.3-.4.3zm-2.2-5.4c-.2 0-.4-.2-.4-.4 0-2.9 0-5.9 1.6-8.1h-5.6c1.6 2.2 1.6 5.2 1.6 8.1 0 .2-.2.4-.4.4s-.4-.2-.4-.4c0-3.2 0-6.2-2-8.2-.1-.1-.2-.3-.1-.5s.2-.3.4-.3h7.5c.2 0 .3.1.4.3s0 .4-.1.5c-2 2-2 5-2 8.2 0 .2-.2.4-.5.4zm-.5 10.2h-2.7c-1.7 0-3.1-1.4-3.1-3.1v-.4h.9v.4c0 1.2 1 2.2 2.2 2.2h2.7c1.2 0 2.2-1 2.2-2.2v-.4h.9v.4c0 1.7-1.4 3.1-3.1 3.1z"/></svg>