<svg width="48" height="66" viewBox="0 0 48 66" fill="none" xmlns="http://www.w3.org/2000/svg"><path d="M.467.33c10.067-2.133 14.934 6.734 20 7.867 5.801 1.267 15.135-6.267 23.935 1.6 7.934 7.067-.066 23.001-3.267 29.868-3.2 7-15.334 28.735-22.4 25.801-5.268-2.2-.4-15.267-5.934-16.6C7.134 47.531 6 62.066.133 61.532c-1.133-.134-2.2-.734-3.133-1.8V1.997C-1.933 1.197-.8.597.467.33z" fill="#fff"/><path d="M30.135 26.331c.333.067.666-.2.733-.533.467-2.267-1-4.467-3.267-4.934-1.066-.2-2.2 0-3.133.6-.933.6-1.6 1.534-1.8 2.667-.067.4.133.733.533.8.4.067.733-.133.8-.533.133-.734.6-1.334 1.2-1.734.6-.4 1.4-.533 2.134-.4 1.466.334 2.466 1.8 2.133 3.334 0 .266.267.667.667.733zm-18.068-3.8c-.4-.067-.6-.467-.533-.8.333-1.534-.667-3-2.133-3.334a3.028 3.028 0 0 0-2.134.4c-.6.4-1.067 1.067-1.2 1.734-.067.4-.467.6-.8.533-.4-.066-.6-.466-.533-.8a4.134 4.134 0 0 1 1.8-2.667c.933-.6 2.066-.8 3.133-.6 2.267.467 3.667 2.667 3.267 4.934-.133.4-.467.6-.867.6.067 0 0 0 0 0z" fill="#292562"/><path d="M23.735 29.931c0 .267-.067.467-.134.734-.8 3.733-4.4 5.2-8.267 4.4-3.867-.8-6.6-3.6-5.8-7.334.067-.267.133-.466.2-.733l14 2.933z" fill="#231F20"/><path d="M39.535 35.798c2.8-6.067 8-17.534 2-22.867-3.866-3.4-7.8-3.267-11.333-2.534 2.333.667 4.733 1.8 7.133 3.667 6.534 5.2 5.067 14 2.2 21.734zM20.468 8.197S3.4 8.93 2.8 4.464C2.4 1.664 6.667.797 9.4 1.33c2.934.533 11.068 6.867 11.068 6.867z" fill="#E6E7E8"/><path d="M28.135 31.198c0 1.133 1.333 2.134 2.933 2.134 1.667 0 2.934-.934 2.934-2.134 0-1.133-1.334-2.133-2.934-2.133s-2.933.933-2.933 2.133zM4.134 26.131c-.467 1.067-2.067 1.4-3.534.734-1.467-.667-2.333-2.067-1.867-3.134.467-1.067 2.067-1.4 3.534-.733 1.467.666 2.333 2.066 1.867 3.133z" fill="#F27175"/><path d="M15.4 35.065c-2.4-.533-4.4-1.8-5.333-3.6.8-.534 2-.734 3.267-.467 1.067.2 2 .733 2.534 1.4.8-.267 1.8-.267 2.8-.067 1.266.267 2.333.867 3 1.667-1.6 1.2-3.934 1.534-6.267 1.067z" fill="#EC2227"/></svg>