<svg id="Layer_1" xmlns="http://www.w3.org/2000/svg" viewBox="0 0 80 100"><style>.st0{fill:#fff}.st1{fill:#292562}.st2{fill:#231f20}.st3{fill:#e6e7e8}.st4{fill:#f27175}.st5{fill:#ec2227}</style><path class="st0" d="M75 1.4C59.9-1.8 52.6 11.5 45 13.2c-8.7 1.9-22.7-9.4-35.9 2.4-11.9 10.6.1 34.5 4.9 44.8 4.8 10.5 23 43.1 33.6 38.7 7.9-3.3.6-22.9 8.9-24.9 8.5-2 10.2 19.8 19 19 1.7-.2 3.3-1.1 4.7-2.7V3.9c-1.6-1.2-3.3-2.1-5.2-2.5z"/><path class="st1" d="M30.5 40.4c-.5.1-1-.3-1.1-.8-.7-3.4 1.5-6.7 4.9-7.4 1.6-.3 3.3 0 4.7.9 1.4.9 2.4 2.3 2.7 4 .1.6-.2 1.1-.8 1.2-.6.1-1.1-.2-1.2-.8-.2-1.1-.9-2-1.8-2.6-.9-.6-2.1-.8-3.2-.6-2.2.5-3.7 2.7-3.2 5 0 .4-.4 1-1 1.1zm27.1-5.7c.6-.1.9-.7.8-1.2-.5-2.3 1-4.5 3.2-5 1.1-.2 2.2 0 3.2.6.9.6 1.6 1.6 1.8 2.6.1.6.7.9 1.2.8.6-.1.9-.7.8-1.2a6.2 6.2 0 0 0-2.7-4c-1.4-.9-3.1-1.2-4.7-.9-3.4.7-5.5 4-4.9 7.4.2.6.7.9 1.3.9-.1 0 0 0 0 0z"/><path class="st2" d="M40.1 45.8c0 .4.1.7.2 1.1 1.2 5.6 6.6 7.8 12.4 6.6 5.8-1.2 9.9-5.4 8.7-11-.1-.4-.2-.7-.3-1.1l-21 4.4z"/><path class="st3" d="M16.4 54.6c-4.2-9.1-12-26.3-3-34.3 5.8-5.1 11.7-4.9 17-3.8-3.5 1-7.1 2.7-10.7 5.5-9.8 7.8-7.6 21-3.3 32.6zM45 13.2s25.6 1.1 26.5-5.6c.6-4.2-5.8-5.5-9.9-4.7C57.2 3.7 45 13.2 45 13.2z"/><path class="st4" d="M33.5 47.7c0 1.7-2 3.2-4.4 3.2-2.5 0-4.4-1.4-4.4-3.2 0-1.7 2-3.2 4.4-3.2 2.4 0 4.4 1.4 4.4 3.2zm36-7.6c.7 1.6 3.1 2.1 5.3 1.1 2.2-1 3.5-3.1 2.8-4.7-.7-1.6-3.1-2.1-5.3-1.1-2.2 1-3.5 3.1-2.8 4.7z"/><path class="st5" d="M52.6 53.5c3.6-.8 6.6-2.7 8-5.4-1.2-.8-3-1.1-4.9-.7-1.6.3-3 1.1-3.8 2.1-1.2-.4-2.7-.4-4.2-.1-1.9.4-3.5 1.3-4.5 2.5 2.4 1.8 5.9 2.3 9.4 1.6z"/></svg>