<svg width="59" height="76" viewBox="0 0 59 76" fill="none" xmlns="http://www.w3.org/2000/svg"><path d="M54.539.38C42.94-2.078 37.333 8.138 31.495 9.444c-6.682 1.46-17.436-7.22-27.575 1.843-9.14 8.142.077 26.5 3.764 34.412 3.687 8.065 17.666 33.106 25.809 29.726 6.068-2.535.46-17.59 6.836-19.126 6.529-1.536 7.834 15.209 14.594 14.594 1.306-.153 2.535-.845 3.61-2.074V2.3C57.304 1.38 55.998.687 54.54.38z" fill="#fff"/><path d="M20.358 30.337c-.384.076-.768-.23-.845-.615-.538-2.611 1.152-5.146 3.763-5.684 1.23-.23 2.535 0 3.61.691 1.076.692 1.844 1.767 2.075 3.073.076.46-.154.845-.615.922-.46.076-.845-.154-.922-.615-.153-.845-.691-1.536-1.382-1.997-.692-.46-1.613-.614-2.458-.46-1.69.383-2.842 2.073-2.458 3.84 0 .307-.308.768-.768.845zm20.816-4.379c.46-.076.69-.537.614-.921-.384-1.767.768-3.457 2.458-3.84.845-.154 1.69 0 2.458.46.691.46 1.229 1.229 1.383 1.997.076.46.537.691.921.615.461-.077.692-.538.615-.922a4.763 4.763 0 0 0-2.074-3.073c-1.075-.69-2.381-.921-3.61-.69-2.612.537-4.225 3.072-3.764 5.683.154.461.538.691.999.691-.077 0 0 0 0 0z" fill="#292562"/><path d="M27.732 34.484c0 .308.076.538.153.845.922 4.302 5.07 5.992 9.525 5.07 4.455-.922 7.604-4.148 6.683-8.45-.077-.307-.154-.537-.231-.844l-16.13 3.38z" fill="#231F20"/><path d="M9.527 41.244C6.301 34.254.31 21.043 7.223 14.898c4.455-3.918 8.987-3.764 13.058-2.92-2.688.769-5.454 2.075-8.219 4.225-7.527 5.992-5.838 16.13-2.535 25.04zm21.968-31.8s19.664.845 20.355-4.302c.461-3.226-4.455-4.224-7.604-3.61-3.38.615-12.75 7.912-12.75 7.912z" fill="#E6E7E8"/><path d="M22.662 35.944c0 1.306-1.536 2.458-3.38 2.458-1.92 0-3.38-1.075-3.38-2.458 0-1.306 1.537-2.458 3.38-2.458 1.844 0 3.38 1.075 3.38 2.458zm27.652-5.838c.538 1.23 2.381 1.613 4.071.845s2.689-2.381 2.15-3.61c-.537-1.229-2.38-1.613-4.07-.845-1.69.768-2.689 2.381-2.15 3.61z" fill="#F27175"/><path d="M37.333 40.399c2.765-.614 5.07-2.074 6.145-4.148-.922-.614-2.304-.845-3.764-.537-1.229.23-2.304.844-2.919 1.613-.921-.308-2.074-.308-3.226-.077-1.46.307-2.688.998-3.456 1.92 1.843 1.383 4.532 1.767 7.22 1.229z" fill="#EC2227"/></svg>